<svg xmlns="http://www.w3.org/2000/svg" enable-background="new 0 0 2000 2000" viewBox="0 0 2000 2000" id="sign-up">
  <g>
    <g>
      <rect width="1525.11" height="16.63" x="237.45" y="1461.21" fill="#2d3154"></rect>
    </g>
    <g>
      <g>
        <g>
          <g>
            <g>
              <g>
                <g>
                  <g>
                    <g>
                      <g>
                        <g>
                          <g>
                            <g>
                              <g>
                                <path fill="#63729b" d="M1506.68,1126.19h-853.4c-16.57,0-30-13.43-30-30V552.17c0-16.57,13.43-30,30-30h853.4
																c16.57,0,30,13.43,30,30v544.02C1536.68,1112.76,1523.25,1126.19,1506.68,1126.19z"></path>
                              </g>
                            </g>
                          </g>
                        </g>
                      </g>
                    </g>
                  </g>
                  <g>
                    <g>
                      <g>
                        <g>
                          <g>
                            <g>
                              <g>
                                <path fill="#323b40" d="M1540.53,1140.03H624.23c-20.24,0-36.66-16.41-36.66-36.66v-16.2h989.6v16.2
																C1577.18,1123.62,1560.77,1140.03,1540.53,1140.03z"></path>
                              </g>
                            </g>
                          </g>
                        </g>
                      </g>
                    </g>
                  </g>
                  <g>
                    <g>
                      <g>
                        <g>
                          <g>
                            <g>
                              <polygon fill="#7b8dbf" points="989.94 1087.18 1002.22 1106.72 1175.01 1106.72 1186.42 1087.18"></polygon>
                            </g>
                          </g>
                        </g>
                      </g>
                    </g>
                  </g>
                </g>
                <g>
                  <g>
                    <g>
                      <g>
                        <g>
                          <g>
                            <g>
                              <path fill="#cbd9ff" d="M1476.17,1054.62H683.01c-9.64,0-17.46-7.82-17.46-17.46V580.9c0-9.64,7.82-17.46,17.46-17.46
															h793.16c9.64,0,17.46,7.82,17.46,17.46v456.27C1493.63,1046.81,1485.81,1054.62,1476.17,1054.62z"></path>
                            </g>
                          </g>
                        </g>
                      </g>
                    </g>
                  </g>
                </g>
              </g>
            </g>
          </g>
          <g>
            <g>
              <g>
                <g>
                  <g>
                    <g>
                      <g>
                        <g>
                          <path fill="#63729b" d="M1475.79,1054.62c-0.04-0.14,2.38,0.29,6.55-1.32c2.05-0.82,4.51-2.24,6.69-4.72
													c2.2-2.41,4.03-5.98,4.41-10.3c0.12-17.35-0.03-42.98-0.02-75.97c-0.04-65.99-0.1-161.47-0.17-279.45
													c-0.01-29.5-0.02-60.4-0.03-92.6c0-2.01,0-4.03,0-6.05c-0.02-2.03,0.1-4.05-0.29-5.99c-0.7-3.9-2.74-7.6-5.82-10.18
													c-3.05-2.6-7.02-4.14-11.07-4.18c-4.14,0-8.3-0.01-12.49-0.01c-16.73,0-33.78,0.01-51.12,0.01
													c-69.37,0.02-143.49,0.03-221.48,0.05c-155.99,0.01-327.49,0.03-507.5,0.04c-5.47-0.02-10.87,2.68-14.04,7.13
													c-1.63,2.18-2.68,4.77-3.09,7.46c-0.39,2.66-0.18,5.52-0.23,8.3c0,11.19,0,22.34,0,33.45c0,22.23,0,44.31,0,66.23
													c0,43.84-0.01,87.04-0.01,129.49c0,42.45-0.01,84.14-0.01,124.98c0,20.42-0.01,40.62-0.01,60.59c0,9.99,0,19.92,0,29.79
													c0.04,2.45-0.1,4.98,0.11,7.33c0.26,2.38,1.03,4.69,2.23,6.75c2.39,4.13,6.53,7.19,11.16,8.22
													c2.3,0.56,4.71,0.42,7.16,0.44c2.43,0,4.86,0,7.28,0c4.84,0,9.67,0,14.49,0c9.63,0,19.19,0,28.7,0.01
													c19,0,37.75,0.01,56.23,0.01c36.95,0.01,72.83,0.02,107.52,0.03c69.37,0.02,133.99,0.05,192.98,0.07
													c117.98,0.07,213.45,0.13,279.44,0.17c32.98,0.04,58.6,0.08,75.97,0.1c8.68,0.02,15.3,0.04,19.76,0.05
													C1473.51,1054.59,1475.79,1054.62,1475.79,1054.62s-2.28,0.04-6.73,0.06c-4.46,0.01-11.08,0.03-19.76,0.05
													c-17.38,0.02-42.99,0.06-75.97,0.1c-65.99,0.04-161.46,0.1-279.44,0.17c-58.99,0.02-123.61,0.04-192.98,0.07
													c-34.69,0.01-70.56,0.02-107.52,0.03c-18.48,0-37.22,0.01-56.23,0.01c-9.5,0-19.07,0-28.7,0.01c-4.81,0-9.64,0-14.49,0
													c-2.42,0-4.85,0-7.28,0c-2.4-0.02-4.91,0.13-7.38-0.46c-4.9-1.09-9.28-4.31-11.8-8.68c-1.27-2.18-2.08-4.62-2.36-7.14
													c-0.22-2.55-0.08-4.96-0.12-7.44c0-9.87,0-19.8,0-29.79c0-19.97-0.01-40.18-0.01-60.59c0-40.83-0.01-82.53-0.01-124.98
													c0-42.45-0.01-85.65-0.01-129.49c0-21.92,0-44,0-66.23c0-11.11,0-22.27,0-33.45c0.06-2.8-0.17-5.57,0.25-8.47
													c0.44-2.85,1.56-5.6,3.28-7.92c3.36-4.72,9.1-7.6,14.9-7.57c180.01,0.02,351.51,0.03,507.5,0.04
													c78,0.02,152.11,0.03,221.48,0.05c17.34,0.01,34.39,0.01,51.12,0.01c4.19,0.01,8.35,0.01,12.5,0.02
													c4.25,0.04,8.42,1.66,11.61,4.39c3.23,2.71,5.37,6.59,6.1,10.68c0.4,2.06,0.27,4.14,0.29,6.14c0,2.02,0,4.04,0,6.05
													c-0.01,32.2-0.02,63.1-0.03,92.6c-0.07,117.98-0.13,213.46-0.17,279.45c-0.07,33,0.01,58.6-0.18,75.99
													c-0.4,4.37-2.28,7.96-4.51,10.39c-2.21,2.49-4.7,3.9-6.77,4.71c-2.08,0.84-3.78,1.02-4.89,1.16
													C1476.36,1054.61,1475.79,1054.62,1475.79,1054.62z"></path>
                        </g>
                      </g>
                    </g>
                  </g>
                </g>
              </g>
            </g>
          </g>
        </g>
        <g>
          <g>
            <path fill="#5cbca5" d="M1098.18,542.99c0,5.03-4.08,9.1-9.1,9.1s-9.1-4.08-9.1-9.1c0-5.03,4.08-9.1,9.1-9.1
						S1098.18,537.96,1098.18,542.99z"></path>
          </g>
        </g>
        <g>
          <g>
            <g>
              <g>
                <g>
                  <g>
                    <g>
                      <path fill="#5cbca5" d="M1432.26,593.12v-8.73c0-1.04,0.76-1.88,1.7-1.88h13.13c0.94,0,1.7,0.84,1.7,1.88v3.75v1.23v3.75
											c0,1.04-0.76,1.88-1.7,1.88h-13.13C1433.02,595,1432.26,594.16,1432.26,593.12z"></path>
                    </g>
                  </g>
                </g>
              </g>
            </g>
          </g>
          <g>
            <g>
              <path fill="#263238" d="M1457.13,597.95h-25.9c-1.28,0-2.31-1.04-2.31-2.31v-14.29c0-1.27,1.04-2.31,2.31-2.31h25.54
							c1.16,0,2.11,0.94,2.11,2.1v2.63c0,0.19,0.15,0.35,0.35,0.35h2.8c0.76,0,1.38,0.62,1.38,1.38v4.63c0,0.94-0.77,1.71-1.71,1.71
							h-2.11c-0.19,0-0.35,0.15-0.35,0.35v3.66C1459.23,597,1458.29,597.95,1457.13,597.95z M1431.23,580.07
							c-0.71,0-1.28,0.58-1.28,1.28v14.29c0,0.71,0.58,1.28,1.28,1.28h25.9c0.59,0,1.08-0.48,1.08-1.08v-3.66
							c0-0.76,0.62-1.38,1.38-1.38h2.11c0.37,0,0.68-0.3,0.68-0.68v-4.63c0-0.19-0.16-0.35-0.35-0.35h-2.8
							c-0.76,0-1.38-0.62-1.38-1.38v-2.63c0-0.59-0.48-1.08-1.08-1.08H1431.23z"></path>
            </g>
          </g>
        </g>
      </g>
      <g>
        <g>
          <g>
            <g>
              <path fill="#263238" d="M1095.22,666.19v3.87h6.77v2.72h-6.77v5.33h-3.39v-14.63h11.06v2.72H1095.22z"></path>
            </g>
            <g>
              <path fill="#263238" d="M1116,666.86v11.25h-3.09v-1.34c-0.86,0.98-2.11,1.5-3.49,1.5c-2.82,0-4.81-1.59-4.81-5.06v-6.35h3.26
							v5.87c0,1.88,0.84,2.72,2.28,2.72c1.5,0,2.59-0.96,2.59-3.03v-5.56H1116z"></path>
            </g>
            <g>
              <path fill="#263238" d="M1119.04,662.59h3.26v15.51h-3.26V662.59z"></path>
            </g>
            <g>
              <path fill="#263238" d="M1125.34,662.59h3.26v15.51h-3.26V662.59z"></path>
            </g>
            <g>
              <path fill="#263238" d="M1151.2,663.47v14.63h-2.78l-7.3-8.88v8.88h-3.34v-14.63h2.8l7.27,8.89v-8.89H1151.2z"></path>
            </g>
            <g>
              <path fill="#263238" d="M1164.4,671.69v6.42h-3.05v-1.4c-0.61,1.02-1.78,1.57-3.43,1.57c-2.63,0-4.2-1.46-4.2-3.41
							c0-1.98,1.4-3.36,4.83-3.36h2.59c0-1.4-0.84-2.22-2.59-2.22c-1.19,0-2.42,0.4-3.24,1.05l-1.17-2.28
							c1.23-0.88,3.05-1.36,4.85-1.36C1162.41,666.69,1164.4,668.28,1164.4,671.69z M1161.14,674.55v-1.15h-2.24
							c-1.53,0-2.01,0.56-2.01,1.32c0,0.82,0.69,1.36,1.84,1.36C1159.82,676.08,1160.76,675.58,1161.14,674.55z"></path>
            </g>
            <g>
              <path fill="#263238" d="M1186.36,671.67v6.44h-3.26v-5.94c0-1.82-0.82-2.66-2.13-2.66c-1.46,0-2.49,0.94-2.49,2.95v5.64h-3.26
							v-5.94c0-1.82-0.77-2.66-2.13-2.66c-1.44,0-2.47,0.94-2.47,2.95v5.64h-3.26v-11.25h3.11v1.3c0.84-0.96,2.09-1.46,3.53-1.46
							c1.57,0,2.91,0.61,3.7,1.84c0.9-1.15,2.36-1.84,4.06-1.84C1184.43,666.69,1186.36,668.24,1186.36,671.67z"></path>
            </g>
            <g>
              <path fill="#263238" d="M1200.37,673.4h-8.51c0.31,1.4,1.5,2.26,3.22,2.26c1.19,0,2.05-0.36,2.82-1.09l1.74,1.88
							c-1.05,1.19-2.61,1.82-4.64,1.82c-3.89,0-6.42-2.45-6.42-5.79c0-3.36,2.57-5.79,6-5.79c3.3,0,5.85,2.22,5.85,5.83
							C1200.44,672.78,1200.39,673.13,1200.37,673.4z M1191.82,671.5h5.54c-0.23-1.42-1.3-2.34-2.76-2.34
							C1193.12,669.16,1192.05,670.06,1191.82,671.5z"></path>
            </g>
          </g>
          <g>
            <g>
              <path fill="#263238" d="M1103.81,745.7v2.87h-11.98V733.1h11.69v2.87h-8.13v3.36h7.18v2.79h-7.18v3.58H1103.81z"></path>
            </g>
            <g>
              <path fill="#263238" d="M1126.5,741.76v6.81h-3.45v-6.28c0-1.92-0.86-2.81-2.25-2.81c-1.55,0-2.63,0.99-2.63,3.12v5.97h-3.45
							v-6.28c0-1.92-0.82-2.81-2.25-2.81c-1.52,0-2.61,0.99-2.61,3.12v5.97h-3.45v-11.89h3.29v1.37c0.88-1.02,2.21-1.55,3.73-1.55
							c1.66,0,3.07,0.64,3.91,1.95c0.95-1.21,2.5-1.95,4.29-1.95C1124.47,736.51,1126.5,738.14,1126.5,741.76z"></path>
            </g>
            <g>
              <path fill="#263238" d="M1140.13,741.79v6.78h-3.23v-1.48c-0.64,1.08-1.88,1.66-3.62,1.66c-2.78,0-4.44-1.55-4.44-3.6
							c0-2.1,1.48-3.56,5.1-3.56h2.74c0-1.48-0.88-2.34-2.74-2.34c-1.26,0-2.56,0.42-3.42,1.1l-1.24-2.41
							c1.3-0.93,3.23-1.44,5.13-1.44C1138.03,736.51,1140.13,738.19,1140.13,741.79z M1136.68,744.81v-1.21h-2.36
							c-1.61,0-2.12,0.6-2.12,1.39c0,0.86,0.73,1.44,1.94,1.44C1135.29,746.43,1136.28,745.9,1136.68,744.81z"></path>
            </g>
            <g>
              <path fill="#263238" d="M1142.83,733.1c0-1.08,0.86-1.92,2.14-1.92c1.28,0,2.14,0.8,2.14,1.85c0,1.15-0.86,1.99-2.14,1.99
							C1143.69,735.03,1142.83,734.19,1142.83,733.1z M1143.25,736.68h3.45v11.89h-3.45V736.68z"></path>
            </g>
            <g>
              <path fill="#263238" d="M1149.9,732.18h3.45v16.39h-3.45V732.18z"></path>
            </g>
            <g>
              <path fill="#263238" d="M1173.24,745.26h-7.18l-1.37,3.31h-3.67l6.89-15.47h3.54l6.92,15.47h-3.76L1173.24,745.26z
							 M1172.12,742.54l-2.45-5.92l-2.45,5.92H1172.12z"></path>
            </g>
            <g>
              <path fill="#263238" d="M1191.75,732.18v16.39h-3.29v-1.37c-0.86,1.04-2.12,1.55-3.71,1.55c-3.36,0-5.94-2.39-5.94-6.12
							c0-3.73,2.58-6.12,5.94-6.12c1.46,0,2.7,0.46,3.56,1.44v-5.77H1191.75z M1188.37,742.63c0-2.05-1.33-3.29-3.03-3.29
							c-1.72,0-3.05,1.24-3.05,3.29c0,2.06,1.33,3.29,3.05,3.29C1187.04,745.92,1188.37,744.68,1188.37,742.63z"></path>
            </g>
            <g>
              <path fill="#263238" d="M1207.04,732.18v16.39h-3.29v-1.37c-0.86,1.04-2.12,1.55-3.71,1.55c-3.36,0-5.94-2.39-5.94-6.12
							c0-3.73,2.58-6.12,5.94-6.12c1.46,0,2.7,0.46,3.56,1.44v-5.77H1207.04z M1203.66,742.63c0-2.05-1.33-3.29-3.03-3.29
							c-1.72,0-3.05,1.24-3.05,3.29c0,2.06,1.33,3.29,3.05,3.29C1202.34,745.92,1203.66,744.68,1203.66,742.63z"></path>
            </g>
            <g>
              <path fill="#263238" d="M1217.61,736.51v3.18c-0.29-0.02-0.51-0.04-0.77-0.04c-1.9,0-3.16,1.04-3.16,3.32v5.61h-3.45v-11.89h3.29
							v1.57C1214.37,737.1,1215.78,736.51,1217.61,736.51z"></path>
            </g>
            <g>
              <path fill="#263238" d="M1231.14,743.6h-8.99c0.33,1.48,1.59,2.39,3.4,2.39c1.26,0,2.17-0.38,2.98-1.15l1.84,1.99
							c-1.1,1.26-2.76,1.92-4.91,1.92c-4.11,0-6.78-2.59-6.78-6.12c0-3.56,2.72-6.12,6.34-6.12c3.49,0,6.19,2.34,6.19,6.17
							C1231.21,742.94,1231.16,743.31,1231.14,743.6z M1222.11,741.59h5.85c-0.24-1.5-1.37-2.47-2.92-2.47
							C1223.48,739.11,1222.35,740.06,1222.11,741.59z"></path>
            </g>
            <g>
              <path fill="#263238" d="M1232.36,747.47l1.15-2.48c1.06,0.69,2.67,1.15,4.13,1.15c1.59,0,2.19-0.42,2.19-1.08
							c0-1.94-7.18,0.04-7.18-4.71c0-2.25,2.03-3.84,5.5-3.84c1.64,0,3.45,0.38,4.57,1.04l-1.15,2.45
							c-1.17-0.66-2.34-0.88-3.43-0.88c-1.55,0-2.21,0.49-2.21,1.1c0,2.03,7.18,0.07,7.18,4.75c0,2.21-2.06,3.78-5.61,3.78
							C1235.5,748.75,1233.47,748.19,1232.36,747.47z"></path>
            </g>
            <g>
              <path fill="#263238" d="M1244.1,747.47l1.15-2.48c1.06,0.69,2.67,1.15,4.13,1.15c1.59,0,2.19-0.42,2.19-1.08
							c0-1.94-7.18,0.04-7.18-4.71c0-2.25,2.03-3.84,5.5-3.84c1.64,0,3.45,0.38,4.58,1.04l-1.15,2.45
							c-1.17-0.66-2.34-0.88-3.43-0.88c-1.55,0-2.21,0.49-2.21,1.1c0,2.03,7.18,0.07,7.18,4.75c0,2.21-2.06,3.78-5.61,3.78
							C1247.24,748.75,1245.21,748.19,1244.1,747.47z"></path>
            </g>
          </g>
          <g>
            <g>
              <path fill="#263238" d="M1106.84,806.74c0,3.44-2.58,5.59-6.71,5.59h-3.11v4.26h-3.58v-15.46h6.69
							C1104.26,801.14,1106.84,803.28,1106.84,806.74z M1103.22,806.74c0-1.7-1.1-2.69-3.29-2.69h-2.91v5.37h2.91
							C1102.12,809.41,1103.22,808.42,1103.22,806.74z"></path>
            </g>
            <g>
              <path fill="#263238" d="M1119.55,809.81v6.78h-3.22v-1.48c-0.64,1.08-1.88,1.65-3.62,1.65c-2.78,0-4.44-1.55-4.44-3.6
							c0-2.1,1.48-3.55,5.1-3.55h2.74c0-1.48-0.88-2.34-2.74-2.34c-1.26,0-2.56,0.42-3.42,1.1l-1.24-2.41
							c1.3-0.93,3.22-1.43,5.12-1.43C1117.45,804.53,1119.55,806.21,1119.55,809.81z M1116.1,812.84v-1.22h-2.36
							c-1.61,0-2.12,0.6-2.12,1.39c0,0.86,0.73,1.43,1.94,1.43C1114.71,814.45,1115.71,813.92,1116.1,812.84z"></path>
            </g>
            <g>
              <path fill="#263238" d="M1121.52,815.49l1.15-2.47c1.06,0.69,2.67,1.15,4.13,1.15c1.59,0,2.19-0.42,2.19-1.08
							c0-1.95-7.18,0.04-7.18-4.7c0-2.25,2.03-3.84,5.5-3.84c1.63,0,3.45,0.38,4.57,1.04l-1.15,2.45c-1.17-0.66-2.34-0.88-3.42-0.88
							c-1.54,0-2.21,0.49-2.21,1.1c0,2.03,7.18,0.06,7.18,4.75c0,2.21-2.06,3.78-5.61,3.78
							C1124.66,816.77,1122.63,816.22,1121.52,815.49z"></path>
            </g>
            <g>
              <path fill="#263238" d="M1133.26,815.49l1.15-2.47c1.06,0.69,2.67,1.15,4.13,1.15c1.59,0,2.19-0.42,2.19-1.08
							c0-1.95-7.18,0.04-7.18-4.7c0-2.25,2.03-3.84,5.5-3.84c1.63,0,3.44,0.38,4.57,1.04l-1.15,2.45c-1.17-0.66-2.34-0.88-3.42-0.88
							c-1.54,0-2.21,0.49-2.21,1.1c0,2.03,7.18,0.06,7.18,4.75c0,2.21-2.06,3.78-5.61,3.78
							C1136.39,816.77,1134.36,816.22,1133.26,815.49z"></path>
            </g>
            <g>
              <path fill="#263238" d="M1164.99,804.71l-4.31,11.88h-3.31l-2.67-7.38l-2.76,7.38h-3.31l-4.28-11.88h3.25l2.8,8.04l2.91-8.04
							h2.92l2.83,8.04l2.89-8.04H1164.99z"></path>
            </g>
            <g>
              <path fill="#263238" d="M1165.4,810.65c0-3.58,2.76-6.12,6.54-6.12c3.78,0,6.51,2.54,6.51,6.12s-2.74,6.12-6.51,6.12
							C1168.16,816.77,1165.4,814.23,1165.4,810.65z M1174.96,810.65c0-2.05-1.3-3.29-3.03-3.29c-1.72,0-3.05,1.24-3.05,3.29
							s1.33,3.29,3.05,3.29C1173.66,813.94,1174.96,812.7,1174.96,810.65z"></path>
            </g>
            <g>
              <path fill="#263238" d="M1188.13,804.53v3.18c-0.29-0.02-0.51-0.04-0.77-0.04c-1.9,0-3.16,1.04-3.16,3.31v5.61h-3.44v-11.88h3.29
							v1.57C1184.89,805.13,1186.3,804.53,1188.13,804.53z"></path>
            </g>
            <g>
              <path fill="#263238" d="M1202.18,800.21v16.38h-3.29v-1.37c-0.86,1.04-2.12,1.55-3.71,1.55c-3.36,0-5.94-2.38-5.94-6.12
							s2.58-6.12,5.94-6.12c1.46,0,2.7,0.46,3.55,1.43v-5.76H1202.18z M1198.8,810.65c0-2.05-1.33-3.29-3.02-3.29
							c-1.72,0-3.05,1.24-3.05,3.29s1.33,3.29,3.05,3.29C1197.48,813.94,1198.8,812.7,1198.8,810.65z"></path>
            </g>
          </g>
          <g>
            <g>
              <g>
                <path fill="#5c80ff" d="M1380.92,987.45l-217.55,0c-2.64,0-4.78-2.14-4.78-4.78v-36.92c0-2.64,2.14-4.78,4.78-4.78h217.55
								c2.64,0,4.78,2.14,4.78,4.78v36.92C1385.7,985.31,1383.56,987.45,1380.92,987.45z"></path>
              </g>
            </g>
            <g>
              <g>
                <path fill="#fff" d="M1184.19,963.16c0-4.57,3.5-7.81,8.26-7.81c2.77,0,5,1.01,6.46,2.83l-2.7,2.45
								c-0.94-1.14-2.1-1.76-3.54-1.76c-2.47,0-4.18,1.72-4.18,4.29c0,2.57,1.72,4.29,4.18,4.29c1.44,0,2.6-0.62,3.54-1.76l2.7,2.45
								c-1.46,1.82-3.69,2.83-6.46,2.83C1187.69,970.97,1184.19,967.73,1184.19,963.16z"></path>
              </g>
              <g>
                <path fill="#fff" d="M1208.38,958.85v3.67c-0.37-0.05-0.62-0.07-0.92-0.07c-1.65,0-2.79,0.84-2.79,2.87v5.34h-4.08v-11.63
								h3.88v1.39C1205.31,959.38,1206.66,958.85,1208.38,958.85z"></path>
              </g>
              <g>
                <path fill="#fff" d="M1221.76,965.88h-8.45c0.34,1.18,1.35,1.87,2.85,1.87c1.14,0,1.89-0.32,2.68-1.01l2.14,2.23
								c-1.12,1.24-2.75,1.89-4.95,1.89c-4.14,0-6.82-2.55-6.82-6.03c0-3.5,2.72-5.99,6.39-5.99c3.43,0,6.22,2.19,6.22,6.03
								C1221.82,965.17,1221.78,965.56,1221.76,965.88z M1213.24,963.74h4.76c-0.21-1.22-1.12-2-2.38-2
								S1213.48,962.52,1213.24,963.74z"></path>
              </g>
              <g>
                <path fill="#fff" d="M1234.28,964.21v6.46h-3.8v-1.5c-0.58,1.12-1.74,1.7-3.43,1.7c-2.79,0-4.33-1.57-4.33-3.58
								c0-2.14,1.57-3.48,5.17-3.48h2.32c-0.06-1.18-0.86-1.85-2.47-1.85c-1.12,0-2.36,0.39-3.15,1.01l-1.37-2.77
								c1.33-0.88,3.3-1.35,5.13-1.35C1232.11,958.85,1234.28,960.52,1234.28,964.21z M1230.2,966.93v-1.01h-1.76
								c-1.31,0-1.78,0.47-1.78,1.18c0,0.69,0.56,1.18,1.52,1.18C1229.09,968.29,1229.88,967.85,1230.2,966.93z"></path>
              </g>
              <g>
                <path fill="#fff" d="M1244.87,970.19c-0.71,0.45-1.76,0.67-2.83,0.67c-2.98,0-4.72-1.46-4.72-4.44v-3.9h-1.7v-3.05h1.7v-3.02
								h4.08v3.02h2.66v3.05h-2.66v3.86c0,0.86,0.49,1.33,1.22,1.33c0.45,0,0.9-0.13,1.24-0.36L1244.87,970.19z"></path>
              </g>
              <g>
                <path fill="#fff" d="M1257.91,965.88h-8.45c0.34,1.18,1.35,1.87,2.85,1.87c1.14,0,1.89-0.32,2.68-1.01l2.14,2.23
								c-1.11,1.24-2.75,1.89-4.95,1.89c-4.14,0-6.82-2.55-6.82-6.03c0-3.5,2.73-5.99,6.39-5.99c3.43,0,6.22,2.19,6.22,6.03
								C1257.97,965.17,1257.93,965.56,1257.91,965.88z M1249.39,963.74h4.77c-0.22-1.22-1.12-2-2.38-2
								C1250.51,961.74,1249.63,962.52,1249.39,963.74z"></path>
              </g>
              <g>
                <path fill="#fff" d="M1276.34,967.75h-6.35l-1.18,2.92h-4.33l6.63-15.02h4.18l6.65,15.02h-4.42L1276.34,967.75z
								 M1275.1,964.62l-1.93-4.81l-1.93,4.81H1275.1z"></path>
              </g>
              <g>
                <path fill="#fff" d="M1282.11,964.83c0-3.5,2.77-5.99,6.67-5.99c2.64,0,4.65,1.18,5.45,3.2l-3.16,1.61
								c-0.56-1.1-1.37-1.57-2.31-1.57c-1.41,0-2.53,0.99-2.53,2.75c0,1.8,1.12,2.79,2.53,2.79c0.94,0,1.76-0.47,2.31-1.57
								l3.16,1.61c-0.8,2.02-2.81,3.2-5.45,3.2C1284.87,970.86,1282.11,968.37,1282.11,964.83z"></path>
              </g>
              <g>
                <path fill="#fff" d="M1294.91,964.83c0-3.5,2.77-5.99,6.67-5.99c2.64,0,4.65,1.18,5.45,3.2l-3.16,1.61
								c-0.56-1.1-1.37-1.57-2.31-1.57c-1.41,0-2.53,0.99-2.53,2.75c0,1.8,1.12,2.79,2.53,2.79c0.94,0,1.76-0.47,2.31-1.57
								l3.16,1.61c-0.8,2.02-2.81,3.2-5.45,3.2C1297.67,970.86,1294.91,968.37,1294.91,964.83z"></path>
              </g>
              <g>
                <path fill="#fff" d="M1307.71,964.83c0-3.5,2.77-5.99,6.56-5.99c3.84,0,6.57,2.49,6.57,5.99c0,3.52-2.72,6.03-6.57,6.03
								C1310.47,970.86,1307.71,968.35,1307.71,964.83z M1316.72,964.83c0-1.76-1.05-2.75-2.45-2.75c-1.37,0-2.44,0.99-2.44,2.75
								c0,1.78,1.07,2.79,2.44,2.79C1315.66,967.62,1316.72,966.61,1316.72,964.83z"></path>
              </g>
              <g>
                <path fill="#fff" d="M1334.94,959.04v11.63h-3.88v-1.24c-0.88,0.97-2.12,1.44-3.45,1.44c-2.85,0-4.94-1.63-4.94-5.32v-6.5
								h4.08v5.84c0,1.8,0.71,2.51,1.93,2.51c1.2,0,2.19-0.8,2.19-2.75v-5.6H1334.94z"></path>
              </g>
              <g>
                <path fill="#fff" d="M1349.93,964.02v6.65h-4.08v-5.99c0-1.67-0.73-2.38-1.91-2.38c-1.31,0-2.32,0.82-2.32,2.75v5.62h-4.08
								v-11.63h3.89v1.27c0.92-0.97,2.23-1.46,3.69-1.46C1347.85,958.85,1349.93,960.41,1349.93,964.02z"></path>
              </g>
              <g>
                <path fill="#fff" d="M1360.5,970.19c-0.71,0.45-1.76,0.67-2.83,0.67c-2.98,0-4.72-1.46-4.72-4.44v-3.9h-1.69v-3.05h1.69
								v-3.02h4.08v3.02h2.66v3.05h-2.66v3.86c0,0.86,0.49,1.33,1.22,1.33c0.45,0,0.9-0.13,1.24-0.36L1360.5,970.19z"></path>
              </g>
            </g>
          </g>
          <g>
            <g>
              <path fill="#263238" d="M1272.73,671.26v-8.66h3.58v8.53c0,2.94,1.28,4.16,3.45,4.16c2.18,0,3.44-1.22,3.44-4.16v-8.53h3.54v8.66
							c0,4.55-2.61,7.07-7.01,7.07C1275.33,678.33,1272.73,675.81,1272.73,671.26z"></path>
            </g>
            <g>
              <path fill="#263238" d="M1288.89,676.96l1.15-2.48c1.06,0.69,2.67,1.15,4.13,1.15c1.59,0,2.19-0.42,2.19-1.08
							c0-1.94-7.18,0.04-7.18-4.71c0-2.25,2.03-3.85,5.5-3.85c1.63,0,3.45,0.38,4.58,1.04l-1.15,2.45
							c-1.17-0.66-2.34-0.88-3.42-0.88c-1.55,0-2.21,0.49-2.21,1.11c0,2.03,7.18,0.07,7.18,4.75c0,2.21-2.06,3.78-5.61,3.78
							C1292.03,678.24,1290,677.69,1288.89,676.96z"></path>
            </g>
            <g>
              <path fill="#263238" d="M1313.37,673.09h-9c0.33,1.48,1.59,2.39,3.4,2.39c1.26,0,2.17-0.38,2.98-1.15l1.84,1.99
							c-1.11,1.26-2.76,1.92-4.91,1.92c-4.11,0-6.79-2.59-6.79-6.12c0-3.56,2.72-6.12,6.34-6.12c3.49,0,6.19,2.34,6.19,6.17
							C1313.43,672.43,1313.39,672.81,1313.37,673.09z M1304.33,671.08h5.86c-0.24-1.5-1.37-2.47-2.92-2.47
							C1305.7,668.61,1304.57,669.56,1304.33,671.08z"></path>
            </g>
            <g>
              <path fill="#263238" d="M1323.13,666v3.18c-0.29-0.02-0.51-0.04-0.77-0.04c-1.9,0-3.16,1.04-3.16,3.32v5.61h-3.45v-11.89h3.29
							v1.57C1319.87,666.6,1321.29,666,1323.13,666z"></path>
            </g>
            <g>
              <path fill="#263238" d="M1337.34,671.26v6.81h-3.44v-6.28c0-1.92-0.89-2.81-2.41-2.81c-1.66,0-2.85,1.02-2.85,3.21v5.88h-3.45
							v-11.89h3.29v1.39c0.93-1.02,2.32-1.57,3.93-1.57C1335.22,666,1337.34,667.63,1337.34,671.26z"></path>
            </g>
            <g>
              <path fill="#263238" d="M1350.99,671.28v6.79h-3.23v-1.48c-0.64,1.08-1.88,1.66-3.63,1.66c-2.78,0-4.44-1.55-4.44-3.6
							c0-2.1,1.48-3.56,5.11-3.56h2.74c0-1.48-0.89-2.34-2.74-2.34c-1.26,0-2.57,0.42-3.43,1.11l-1.24-2.41
							c1.3-0.93,3.23-1.44,5.13-1.44C1348.89,666,1350.99,667.68,1350.99,671.28z M1347.54,674.31v-1.21h-2.36
							c-1.61,0-2.12,0.6-2.12,1.39c0,0.86,0.73,1.44,1.94,1.44C1346.15,675.92,1347.15,675.39,1347.54,674.31z"></path>
            </g>
            <g>
              <path fill="#263238" d="M1374.2,671.26v6.81h-3.45v-6.28c0-1.92-0.86-2.81-2.25-2.81c-1.55,0-2.63,1-2.63,3.12v5.97h-3.45v-6.28
							c0-1.92-0.82-2.81-2.25-2.81c-1.53,0-2.61,1-2.61,3.12v5.97h-3.45v-11.89h3.29v1.37c0.89-1.02,2.21-1.55,3.74-1.55
							c1.66,0,3.07,0.64,3.91,1.95c0.95-1.21,2.5-1.95,4.29-1.95C1372.17,666,1374.2,667.63,1374.2,671.26z"></path>
            </g>
            <g>
              <path fill="#263238" d="M1389.03,673.09h-9c0.33,1.48,1.59,2.39,3.4,2.39c1.26,0,2.17-0.38,2.98-1.15l1.84,1.99
							c-1.11,1.26-2.76,1.92-4.91,1.92c-4.11,0-6.79-2.59-6.79-6.12c0-3.56,2.72-6.12,6.34-6.12c3.49,0,6.19,2.34,6.19,6.17
							C1389.09,672.43,1389.05,672.81,1389.03,673.09z M1379.99,671.08h5.86c-0.24-1.5-1.37-2.47-2.92-2.47
							C1381.36,668.61,1380.23,669.56,1379.99,671.08z"></path>
            </g>
          </g>
          <g>
            <g>
              <path fill="#fff" d="M1251.73,722.13H1093.7c-1.73,0-3.14-1.4-3.14-3.14v-25.91c0-1.73,1.4-3.14,3.14-3.14h158.02
							c1.73,0,3.14,1.4,3.14,3.14v25.91C1254.86,720.72,1253.46,722.13,1251.73,722.13z"></path>
            </g>
          </g>
          <g>
            <g>
              <path fill="#fff" d="M1429.7,790.47h-336c-1.73,0-3.14-1.4-3.14-3.14v-25.91c0-1.73,1.4-3.14,3.14-3.14h336
							c1.73,0,3.14,1.4,3.14,3.14v25.91C1432.84,789.06,1431.43,790.47,1429.7,790.47z"></path>
            </g>
          </g>
          <g>
            <g>
              <path fill="#fff" d="M1429.7,858.99l-336,0c-1.73,0-3.14-1.4-3.14-3.14v-25.91c0-1.73,1.4-3.14,3.14-3.14l336,0
							c1.73,0,3.14,1.4,3.14,3.14v25.91C1432.84,857.59,1431.43,858.99,1429.7,858.99z"></path>
            </g>
          </g>
          <g>
            <g>
              <path fill="#fff" d="M1429.7,722.13h-155.01c-1.73,0-3.14-1.4-3.14-3.14l0-25.91c0-1.73,1.4-3.14,3.14-3.14h155.01
							c1.73,0,3.14,1.4,3.14,3.14v25.91C1432.84,720.72,1431.43,722.13,1429.7,722.13z"></path>
            </g>
          </g>
          <g>
            <g>
              <path fill="#5c80ff" d="M1107.05,890.86h-11.43c-0.55,0-0.99-0.44-0.99-0.99l0-11.43c0-0.55,0.44-0.99,0.99-0.99h11.43
							c0.55,0,0.99,0.44,0.99,0.99v11.43C1108.04,890.41,1107.59,890.86,1107.05,890.86z"></path>
            </g>
          </g>
          <g>
            <g>
              <path fill="#fff" d="M1417.53,889.94l-294.97,0c-2.73,0-4.95-2.21-4.95-4.95l0,0c0-2.73,2.21-4.95,4.95-4.95h294.97
							c2.73,0,4.95,2.21,4.95,4.95l0,0C1422.48,887.73,1420.27,889.94,1417.53,889.94z"></path>
            </g>
          </g>
          <g>
            <g>
              <path fill="#fff" d="M1171.09,908.44h-47.01c-2.73,0-4.95-2.21-4.95-4.95l0,0c0-2.73,2.21-4.95,4.95-4.95h47.01
							c2.73,0,4.95,2.21,4.95,4.95l0,0C1176.04,906.22,1173.82,908.44,1171.09,908.44z"></path>
            </g>
          </g>
        </g>
        <g>
          <g>
            <g>
              <path fill="#5c80ff" d="M733.64,835.83l4.52-10.16c4.31,2.85,10.43,4.8,16.07,4.8c5.7,0,7.93-1.6,7.93-3.96
							c0-7.72-27.68-2.09-27.68-20.17c0-8.69,7.09-15.79,21.56-15.79c6.33,0,12.87,1.46,17.67,4.24l-4.24,10.23
							c-4.66-2.5-9.25-3.76-13.49-3.76c-5.77,0-7.86,1.95-7.86,4.38c0,7.44,27.61,1.88,27.61,19.82c0,8.49-7.09,15.72-21.56,15.72
							C746.16,841.18,738.23,839.03,733.64,835.83z"></path>
            </g>
            <g>
              <path fill="#5c80ff" d="M779.97,791.32c0-3.97,3.2-7.03,8.07-7.03c4.87,0,8.07,2.85,8.07,6.82c0,4.17-3.2,7.23-8.07,7.23
							C783.17,798.34,779.97,795.28,779.97,791.32z M781.44,802.51h13.22v37.7h-13.22V802.51z"></path>
            </g>
            <g>
              <path fill="#5c80ff" d="M843.76,802.51v30.81c0,14.26-8.07,21-22.12,21c-7.23,0-14.12-1.67-18.71-4.94l4.8-9.25
							c3.13,2.5,8.28,4.03,12.73,4.03c7.09,0,10.08-3.2,10.08-9.11v-1.25c-2.57,2.99-6.4,4.45-11.2,4.45
							c-10.01,0-18.5-7.09-18.5-18.22c0-11.06,8.49-18.15,18.5-18.15c5.22,0,9.25,1.67,11.83,5.22v-4.59H843.76z M830.68,820.04
							c0-4.59-3.48-7.65-8.21-7.65c-4.73,0-8.28,3.06-8.28,7.65c0,4.59,3.55,7.72,8.28,7.72
							C827.2,827.76,830.68,824.63,830.68,820.04z"></path>
            </g>
            <g>
              <path fill="#5c80ff" d="M892.39,818.65v21.56h-13.22v-19.41c0-5.42-2.36-7.72-6.19-7.72c-4.24,0-7.51,2.64-7.51,8.9v18.22h-13.22
							v-37.7h12.59v4.1c2.99-3.13,7.23-4.73,11.96-4.73C885.64,801.89,892.39,806.96,892.39,818.65z"></path>
            </g>
            <g>
              <path fill="#5c80ff" d="M960.57,802.51v37.7h-12.59v-4.03c-2.85,3.13-6.89,4.66-11.2,4.66c-9.25,0-16-5.29-16-17.25v-21.07H934
							v18.92c0,5.84,2.3,8.14,6.26,8.14c3.9,0,7.1-2.58,7.1-8.9v-18.15H960.57z"></path>
            </g>
            <g>
              <path fill="#5c80ff" d="M1011.28,821.36c0,11.96-8.28,19.48-18.5,19.48c-4.38,0-7.93-1.32-10.5-3.97v16.83h-13.21v-51.19h12.59
							v3.76c2.5-2.99,6.19-4.38,11.13-4.38C1003.01,801.89,1011.28,809.4,1011.28,821.36z M997.93,821.36c0-5.7-3.48-8.97-7.93-8.97
							s-7.93,3.27-7.93,8.97c0,5.7,3.48,8.97,7.93,8.97S997.93,827.07,997.93,821.36z"></path>
            </g>
          </g>
          <g>
            <g>
              <g>
                <path fill="#fff" d="M1026.75,911.51l-308.58,0c-2.42,0-4.38-1.96-4.38-4.38v-30.39c0-2.42,1.96-4.38,4.38-4.38l308.58,0
								c2.42,0,4.38,1.96,4.38,4.38v30.39C1031.13,909.55,1029.17,911.51,1026.75,911.51z"></path>
              </g>
            </g>
            <g>
              <g>
                <g>
                  <path fill="#263238" d="M789.34,896.04l0.72-1.53c1.02,0.92,2.76,1.58,4.52,1.58c2.37,0,3.39-0.92,3.39-2.11
									c0-3.35-8.3-1.23-8.3-6.32c0-2.11,1.64-3.91,5.25-3.91c1.6,0,3.27,0.43,4.4,1.21l-0.65,1.57c-1.19-0.76-2.54-1.12-3.76-1.12
									c-2.33,0-3.33,0.98-3.33,2.17c0,3.35,8.3,1.25,8.3,6.28c0,2.09-1.68,3.89-5.3,3.89
									C792.49,897.76,790.43,897.06,789.34,896.04z"></path>
                </g>
                <g>
                  <path fill="#263238" d="M802.14,884.03c0-0.68,0.55-1.23,1.27-1.23c0.72,0,1.27,0.53,1.27,1.19c0,0.7-0.53,1.25-1.27,1.25
									C802.69,885.24,802.14,884.71,802.14,884.03z M802.48,887.23h1.88v10.37h-1.88V887.23z"></path>
                </g>
                <g>
                  <path fill="#263238" d="M817.86,887.23v8.96c0,3.66-1.86,5.32-5.38,5.32c-1.9,0-3.82-0.53-4.95-1.55l0.9-1.45
									c0.96,0.82,2.46,1.35,3.99,1.35c2.45,0,3.56-1.14,3.56-3.48v-0.82c-0.9,1.08-2.25,1.6-3.74,1.6c-2.99,0-5.26-2.03-5.26-5.03
									c0-3,2.27-5.01,5.26-5.01c1.55,0,2.96,0.57,3.84,1.7v-1.6H817.86z M816.02,892.15c0-2.02-1.49-3.37-3.56-3.37
									c-2.09,0-3.58,1.35-3.58,3.37c0,1.99,1.49,3.38,3.58,3.38C814.53,895.53,816.02,894.14,816.02,892.15z"></path>
                </g>
                <g>
                  <path fill="#263238" d="M831.29,891.64v5.97h-1.88v-5.75c0-2.03-1.02-3.03-2.8-3.03c-2,0-3.29,1.19-3.29,3.44v5.34h-1.88
									v-10.37h1.8v1.56c0.76-1.06,2.1-1.66,3.74-1.66C829.51,887.14,831.29,888.58,831.29,891.64z"></path>
                </g>
                <g>
                  <path fill="#263238" d="M849.71,887.23v10.37h-1.78v-1.56c-0.76,1.08-2.05,1.68-3.52,1.68c-2.68,0-4.46-1.47-4.46-4.52v-5.97
									h1.88v5.75c0,2.03,1.02,3.05,2.8,3.05c1.96,0,3.21-1.21,3.21-3.44v-5.36H849.71z"></path>
                </g>
                <g>
                  <path fill="#263238" d="M864.04,892.42c0,3.19-2.21,5.3-5.24,5.3c-1.47,0-2.76-0.57-3.62-1.68v5.36h-1.88v-14.17h1.8v1.64
									c0.84-1.16,2.17-1.74,3.7-1.74C861.83,887.14,864.04,889.25,864.04,892.42z M862.14,892.42c0-2.19-1.51-3.64-3.5-3.64
									c-1.98,0-3.48,1.45-3.48,3.64c0,2.21,1.51,3.66,3.48,3.66C860.64,896.08,862.14,894.63,862.14,892.42z"></path>
                </g>
                <g>
                  <path fill="#263238" d="M887.61,887.23l-3.87,10.37h-1.8l-3-7.87l-3.03,7.87h-1.8l-3.86-10.37h1.78l3.01,8.26l3.13-8.26h1.58
									l3.07,8.3l3.09-8.3H887.61z"></path>
                </g>
                <g>
                  <path fill="#263238" d="M889.18,884.03c0-0.68,0.55-1.23,1.27-1.23c0.72,0,1.27,0.53,1.27,1.19c0,0.7-0.53,1.25-1.27,1.25
									C889.73,885.24,889.18,884.71,889.18,884.03z M889.52,887.23h1.88v10.37h-1.88V887.23z"></path>
                </g>
                <g>
                  <path fill="#263238" d="M900.81,897c-0.57,0.49-1.43,0.73-2.27,0.73c-2.09,0-3.29-1.16-3.29-3.25v-5.69h-1.76v-1.55h1.76v-2.27
									h1.88v2.27h2.98v1.55h-2.98v5.62c0,1.11,0.59,1.74,1.62,1.74c0.55,0,1.08-0.18,1.47-0.49L900.81,897z"></path>
                </g>
                <g>
                  <path fill="#263238" d="M912.92,891.64v5.97h-1.88v-5.75c0-2.03-1.02-3.03-2.8-3.03c-1.99,0-3.29,1.19-3.29,3.44v5.34h-1.88
									v-14.52h1.88v5.62c0.78-1,2.07-1.56,3.66-1.56C911.14,887.14,912.92,888.58,912.92,891.64z"></path>
                </g>
                <g>
                  <path fill="#263238" d="M931.44,890.68h1.88v5.34c-1.37,1.16-3.27,1.74-5.18,1.74c-4.21,0-7.3-2.95-7.3-7
									c0-4.05,3.09-7.01,7.34-7.01c2.17,0,4.01,0.72,5.26,2.11l-1.21,1.21c-1.14-1.1-2.43-1.59-3.97-1.59
									c-3.17,0-5.46,2.21-5.46,5.26c0,3.01,2.29,5.26,5.44,5.26c1.15,0,2.23-0.25,3.21-0.88V890.68z"></path>
                </g>
                <g>
                  <path fill="#263238" d="M935.84,892.42c0-3.09,2.29-5.28,5.4-5.28c3.11,0,5.38,2.19,5.38,5.28c0,3.09-2.27,5.3-5.38,5.3
									C938.12,897.72,935.84,895.51,935.84,892.42z M944.72,892.42c0-2.21-1.49-3.64-3.48-3.64c-2,0-3.5,1.43-3.5,3.64
									c0,2.21,1.5,3.66,3.5,3.66C943.23,896.08,944.72,894.63,944.72,892.42z"></path>
                </g>
                <g>
                  <path fill="#263238" d="M948.27,892.42c0-3.09,2.29-5.28,5.4-5.28c3.11,0,5.38,2.19,5.38,5.28c0,3.09-2.27,5.3-5.38,5.3
									C950.56,897.72,948.27,895.51,948.27,892.42z M957.15,892.42c0-2.21-1.49-3.64-3.48-3.64c-2,0-3.5,1.43-3.5,3.64
									c0,2.21,1.5,3.66,3.5,3.66C955.67,896.08,957.15,894.63,957.15,892.42z"></path>
                </g>
                <g>
                  <path fill="#263238" d="M971.58,887.23v8.96c0,3.66-1.86,5.32-5.38,5.32c-1.9,0-3.81-0.53-4.95-1.55l0.9-1.45
									c0.96,0.82,2.47,1.35,3.99,1.35c2.45,0,3.56-1.14,3.56-3.48v-0.82c-0.9,1.08-2.25,1.6-3.74,1.6c-3,0-5.26-2.03-5.26-5.03
									c0-3,2.27-5.01,5.26-5.01c1.55,0,2.95,0.57,3.83,1.7v-1.6H971.58z M969.74,892.15c0-2.02-1.49-3.37-3.56-3.37
									c-2.09,0-3.58,1.35-3.58,3.37c0,1.99,1.48,3.38,3.58,3.38C968.25,895.53,969.74,894.14,969.74,892.15z"></path>
                </g>
                <g>
                  <path fill="#263238" d="M975.17,883.09h1.88v14.52h-1.88V883.09z"></path>
                </g>
                <g>
                  <path fill="#263238" d="M989.96,893.05h-8.42c0.24,1.82,1.7,3.03,3.76,3.03c1.21,0,2.23-0.41,3-1.25l1.04,1.21
									c-0.94,1.09-2.37,1.68-4.09,1.68c-3.35,0-5.58-2.21-5.58-5.3c0-3.07,2.21-5.28,5.2-5.28c3,0,5.13,2.15,5.13,5.34
									C990,892.64,989.98,892.87,989.96,893.05z M981.55,891.7h6.65c-0.19-1.74-1.51-2.97-3.33-2.97
									C983.07,888.72,981.74,889.94,981.55,891.7z"></path>
                </g>
              </g>
              <g>
                <g>
                  <path fill="#263238" d="M763.48,891.88v3.06h7.51c-0.65,2.65-3.02,4.32-6.29,4.32c-4.19,0-7.24-2.99-7.24-7.11
									c0-2.36,1.2-4.62,3.18-5.91c3.17-2.08,6.99-1.28,8.97,0.99c0.51,0.58,1.33,0.77,2,0.39l0,0c0.85-0.48,1.09-1.64,0.44-2.37
									c-1.83-2.07-4.54-3.3-7.45-3.3c-5.86,0-10.27,4.38-10.27,10.2s4.46,10.2,10.38,10.2c5.56,0,9.6-3.74,9.6-8.88v-1.58H763.48z
									"></path>
                </g>
              </g>
            </g>
          </g>
        </g>
        <g>
          <g>
            <g>
              <g>
                <circle cx="872.46" cy="716.8" r="54.91" fill="#5c80ff" transform="rotate(-45.001 872.458 716.814)"></circle>
              </g>
            </g>
          </g>
          <g>
            <g>
              <g>
                <path fill="#fff" d="M907.97,758.46c-1.63-16.87-15.99-31.18-35.49-31.18c-19.5,0-32.84,14.75-35.5,31.3
								c0,0,12.05,13.33,35.5,13.13C895.93,771.52,907.97,758.46,907.97,758.46z"></path>
              </g>
            </g>
          </g>
          <g>
            <g>
              <g>
                <circle cx="872.48" cy="709.52" r="21.53" fill="#fff"></circle>
              </g>
            </g>
          </g>
        </g>
      </g>
    </g>
    <g>
      <g>
        <g>
          <g>
            <g>
              <g>
                <g>
                  <path fill="#0266c0" d="M643.94,1294.9L643.94,1294.9h-99.25h-99.25l0,0c0,11.11-9.39,32.49-20.39,33.99
									c-30.25,4.13-87.8,12.38-109.73,18.11c0,0,42.41,81.93,228.18,86.62c185.76-4.69,228.18-86.62,228.18-86.62
									c-21.93-5.73-79.48-13.98-109.73-18.11C650.93,1327.39,643.94,1306,643.94,1294.9z"></path>
                </g>
                <g>
                  <path fill="#045896" d="M756.76,1365.54c-4.27-1.61-8.61-3.11-13-4.53c-18.56-5.99-38.14-8.37-57.64-8.84
									c-19.5-0.48-39.14,0-58.59,1.39c10.38-4.38,22.72-7.52,33.99-7.58c-14.07-3.79-29.7-3.64-43.26,1.69
									c-9.8-7.68-23.14-12.72-35.57-12.02c13.59-1.44,28.43-2.78,42.04-1.51c-26.73-5.59-53.91-4.25-81.24-4.25
									c-27.33,0-54.51-1.35-81.24,4.25c13.61-1.27,28.45,0.07,42.04,1.51c-12.43-0.71-25.77,4.34-35.57,12.02
									c-13.56-5.33-29.19-5.47-43.26-1.69c11.27,0.06,23.61,3.2,33.99,7.58c-19.46-1.39-39.09-1.87-58.59-1.39
									c-19.5,0.48-39.07,2.85-57.64,8.84c-4.4,1.42-8.73,2.92-13,4.53c24.63,24.46,84.5,64.82,213.27,68.08
									C672.26,1430.37,732.14,1390.01,756.76,1365.54z"></path>
                </g>
              </g>
              <g>
                <g>
                  <polygon fill="#2c2c41" points="473.76 1362.88 462.76 1371.91 474.93 1371.44"></polygon>
                </g>
                <g>
                  <path fill="#1d2028" d="M384.53,1344.89c3.8-1.7,7.92-2.7,12.12-2.87c12.4-0.5,23.94,5.92,34.41,12.6
									c10.46,6.68,30.41,12.41,42.7,14.12c0.08-0.88,0-3.62,0-5.86c17.94-2.37,30,1.59,43.08,11.38
									c3.09,8.06,3.67,17.5,1.96,25.96c-23.26-10.86-54.78-6.67-54.78-6.67c7.04,4.87,22.13,10.9,22.13,10.9
									c-3.04,4.75-6.06,8.86-8.62,12.11l0,0l-0.12,0.15c-0.54,0.68-1.06,1.34-1.56,1.94l0,0l-3.43,4.29
									c-25.67-5.92-49.35-30.19-49.35-30.19l0.08,0.04c-13.64-7.68-27.02-15.84-40.32-24.13
									C374.74,1363.62,375.82,1348.79,384.53,1344.89z"></path>
                </g>
                <g>
                  <g>
                    <path fill="#e2e1fa" d="M464.02,1393.55c0,0,31.52-4.19,54.78,6.67c13.18,2.07,26.84,1.61,40.12,0.34
										c-1.05,13.27-6.19,29.08-9.76,41.91c-25.04-5.89-49.57-13.9-73.3-23.81c2.86-3.5,6.57-8.38,10.29-14.2
										C486.15,1404.45,471.07,1398.41,464.02,1393.55z"></path>
                  </g>
                  <g>
                    <path fill="#beb9de" d="M558.93,1400.55c-1.05,13.27-6.19,29.08-9.76,41.91c-6.67-1.57-13.31-3.3-19.9-5.17
										c1.91-12.82,6.9-25.18,14.42-35.74C548.79,1401.4,553.89,1401.04,558.93,1400.55z"></path>
                  </g>
                </g>
                <g>
                  <path fill="#0266c0" d="M552.62,1396.04c-10.07,16.14-15.47,35.16-15.36,54.18c79.67,22.15,174.78,19.73,238.67-1.16
									c35.92-11.74,49.08-56.72,24.51-85.42c-0.2-0.23-0.4-0.47-0.61-0.7c-10.82-12.34-27.18-18.39-43.47-16.43
									C673.11,1356.54,623.81,1392.44,552.62,1396.04z"></path>
                </g>
                <g>
                  <path fill="#045896" d="M610.03,1433.5c0.02,0.01,0.04,0.02,0.07,0.03c1.97,0.75,4.13,0.83,6.17,0.29
									c21.16-5.52,39.83-22.64,47.04-29.93c2.27-2.3,4.85-4.28,7.66-5.9c35.51-20.46,41.9-29.97,38.52-42.67
									c-57.24,14.46-100.1,37.85-156.86,40.72c-10.07,16.14-15.47,35.16-15.36,54.18c7.87,2.19,15.9,4.13,24.02,5.84
									c0.3-0.79,0.56-1.59,0.79-2.4c1.18-4.17,4.28-7.51,8.37-8.96c10.8-3.82,21.93-7.32,32.64-11.23
									C605.33,1432.65,607.8,1432.64,610.03,1433.5z"></path>
                </g>
              </g>
              <g>
                <g>
                  <polygon fill="#2c2c41" points="613.22 1362.88 624.23 1371.91 612.05 1371.44"></polygon>
                </g>
                <g>
                  <path fill="#1d2028" d="M702.46,1344.89c-3.8-1.7-7.92-2.7-12.12-2.87c-12.4-0.5-23.94,5.92-34.41,12.6
									c-10.46,6.68-30.41,12.41-42.7,14.12c-0.08-0.88,0-3.62,0-5.86c-17.94-2.37-30,1.59-43.08,11.38
									c-3.09,8.06-3.67,17.5-1.96,25.96c23.26-10.86,54.78-6.67,54.78-6.67c-7.04,4.87-22.13,10.9-22.13,10.9
									c3.04,4.75,6.06,8.86,8.62,12.11l0,0l0.12,0.15c0.54,0.68,1.06,1.34,1.56,1.94l0,0l3.43,4.29
									c25.67-5.92,49.35-30.19,49.35-30.19l-0.08,0.04c13.64-7.68,27.02-15.84,40.32-24.13
									C712.24,1363.62,711.17,1348.79,702.46,1344.89z"></path>
                </g>
                <g>
                  <g>
                    <path fill="#e2e1fa" d="M622.96,1393.55c0,0-31.52-4.19-54.78,6.67c-13.18,2.07-26.84,1.61-40.12,0.34
										c1.05,13.27,6.19,29.08,9.76,41.91c25.04-5.89,49.57-13.9,73.3-23.81c-2.86-3.5-6.57-8.38-10.29-14.2
										C600.83,1404.45,615.92,1398.41,622.96,1393.55z"></path>
                  </g>
                  <g>
                    <path fill="#beb9de" d="M528.06,1400.55c1.05,13.27,6.19,29.08,9.76,41.91c6.67-1.57,13.31-3.3,19.9-5.17
										c-1.91-12.82-6.9-25.18-14.42-35.74C538.2,1401.4,533.1,1401.04,528.06,1400.55z"></path>
                  </g>
                </g>
                <g>
                  <path fill="#0266c0" d="M534.36,1396.04c10.07,16.14,15.47,35.16,15.36,54.18c-79.67,22.15-174.78,19.73-238.67-1.16
									c-35.92-11.74-49.08-56.72-24.51-85.42c0.2-0.23,0.4-0.47,0.61-0.7c10.82-12.34,27.18-18.39,43.47-16.43
									C413.88,1356.54,463.18,1392.44,534.36,1396.04z"></path>
                </g>
              </g>
              <g>
                <path fill="#5e5b89" d="M544.69,1294.9h-99.25c9.43,5.7,20.24,9.92,31.27,9.92h67.98h67.98c11.02,0,21.83-4.21,31.27-9.92
								H544.69z"></path>
              </g>
              <g>
                <g>
                  <rect width="198.5" height="15.84" x="445.44" y="1279.05" fill="#8a4338"></rect>
                </g>
                <g>
                  <path fill="#fdb72b" d="M535.95,1285.5l1.2-6.45h16.98c4.38,0,7.92,3.55,7.92,7.92l0,0c0,4.38-3.55,7.92-7.92,7.92h-16.98
									v5.53h16.98c7.43,0,13.45-6.02,13.45-13.45l0,0c0-7.43-7.22-1.47-14.65-1.47H535.95z"></path>
                </g>
                <g>
                  <rect width="7.29" height="22.63" x="529.85" y="1276.29" fill="#ba5f3f"></rect>
                </g>
                <g>
                  <g>
                    <rect width="7.54" height="22.63" x="498.59" y="1276.29" fill="#7d7caf"></rect>
                  </g>
                  <g>
                    <rect width="7.54" height="22.63" x="457.68" y="1276.29" fill="#7d7caf"></rect>
                  </g>
                </g>
                <g>
                  <g>
                    <rect width="7.54" height="22.63" x="583.25" y="1276.29" fill="#7d7caf" transform="rotate(-180 587.023 1287.603)"></rect>
                  </g>
                  <g>
                    <rect width="7.54" height="22.63" x="624.16" y="1276.29" fill="#7d7caf" transform="rotate(-180 627.93 1287.603)"></rect>
                  </g>
                </g>
                <g>
                  <path fill="#ffe192" d="M562.92,1288.61H547c-0.9,0-1.63-0.73-1.63-1.63l0,0c0-0.9,0.73-1.63,1.63-1.63h15.93
									c0.9,0,1.63,0.73,1.63,1.63l0,0C564.56,1287.88,563.83,1288.61,562.92,1288.61z"></path>
                </g>
              </g>
            </g>
          </g>
        </g>
      </g>
      <g>
        <g>
          <g>
            <g>
              <path fill="#f9b295" d="M561.34,999.73c0,0-2.75-26.05-0.09-35.15c2.66-9.1-57.3-11.93-57.3-11.93s3.91,29.47,0,47.08
							c0,0-9.04,4.37-21.27,7.42c0,0,55.23,37.23,69.49,48.15c0,0,18.27-40.69,30.51-48.69
							C582.68,1006.61,569.48,1002.14,561.34,999.73z"></path>
            </g>
            <g opacity=".3">
              <g>
                <path fill="#ffb495" d="M505.39,968.97c0,0,14.13,12.78,30.9,17.26c11.33,3.02,23.53-4.66,24.46-16.35
								c0.05-0.59-0.6-0.91-0.6-0.91H505.39z"></path>
              </g>
            </g>
            <g>
              <g>
                <g>
                  <path fill="#f9b295" d="M612.3,922.02c-1.8,3.95-9.87,11.01-15.84,11.34c-3.06,17.29-5.35,31.21-26.8,40.54
									c-3.12,1.36-6.32,2.44-9.57,3.26c-11.06,2.8-22.77,2.64-34.02,0.15c-8.03-1.79-14.86-4.42-20.66-7.66
									c-20.42-11.41-28.06-30.2-29.87-45.09c-0.2-1.63-0.32-4.07-0.39-7.06c-6.41,5.12-16.8-8.23-17.9-13.85
									c-1.27-6.51-0.5-16.86,5.87-20.73c0.55-0.33,1.14-0.62,1.79-0.86c3.46-1.26,7.43-0.12,10.61,1.67
									c0.13,0.07,0.26,0.14,0.39,0.23c0.02,0.01,0.05,0.02,0.06,0.04c0.01,0,0.02,0.01,0.04,0.02
									c0.81-3.69,7.48-18.44,10.87-28.41c0.04-0.07,0.05-0.14,0.07-0.21c0.2-0.6,0.39-1.18,0.57-1.74
									c0.68-2.16,2.35-3.88,4.5-4.57c13.07-4.19,27.16-12.01,32.2-24.11c0.33-0.81,3.63-2.64,7.79-1.55
									c16.07,3.99,29.66,7.45,39.65,10.04c1.04,0.26,2.04,0.52,3,0.77c6.7,1.73,11.44,2.98,13.8,3.61
									c1.96,1.9,10.06,10.35,14.5,24c1.29,3.95,1.56,8.18,1.1,12.32l-2.69,23.74c0.56-0.1,1.14-0.17,1.71-0.2
									c1.85-0.12,3.69,0.08,5.33,0.76c0.51,0.21,1,0.46,1.46,0.77C616.98,903.93,615.29,915.46,612.3,922.02z"></path>
                </g>
              </g>
              <g>
                <path fill="#f5c4b3" d="M475.97,883.88V884c-0.01-0.01-0.04-0.02-0.06-0.04c-0.13-0.08-0.26-0.16-0.39-0.23
								c0-0.05,0-0.1,0.01-0.14c0-0.32,0.01-0.64,0.02-0.96l0.32,1.19C475.91,883.85,475.94,883.86,475.97,883.88z"></path>
              </g>
              <g>
                <path fill="#00275c" d="M609.87,899.25c-2.72-1.12-4.56-1.41-6.92-0.82c-0.54,0.13-1.11,0.3-1.71,0.52l0.12-1.04
								c0.56-0.1,1.14-0.17,1.71-0.2c1.85-0.12,3.69,0.08,5.33,0.76C608.92,898.69,609.41,898.94,609.87,899.25z"></path>
              </g>
              <g>
                <path fill="#00275c" d="M475.55,882.63l0.32,1.19c-0.12-0.07-0.23-0.15-0.35-0.23C475.53,883.27,475.54,882.95,475.55,882.63z"></path>
              </g>
              <g>
                <path fill="#00275c" d="M475.97,884c0.01,0,0.02,0.01,0.04,0.02c-0.01,0.06-0.02,0.12-0.04,0.17V884z"></path>
              </g>
              <g>
                <path fill="#00275c" d="M609.28,810.86c0,0.01-0.01,0.04-0.01,0.05c-0.25-0.31-0.51-0.62-0.77-0.93
								c0.15,0.17,0.3,0.35,0.45,0.51C609.06,810.61,609.17,810.73,609.28,810.86z"></path>
              </g>
              <g>
                <path fill="#3f0f1b" d="M475.97,883.88v0.31c-0.06,0.26-0.48,0.68-0.48,0.68c-4.56-4.44-10.91-2.48-12.37-1.94
								c-0.2,0.07-0.31,0.12-0.31,0.12s-0.01-0.43-0.04-1.19c0.37-0.19,0.75-0.37,1.16-0.51c3.82-1.38,8.25,0.18,11.6,2.25
								c0.12,0.07,0.23,0.15,0.35,0.23C475.91,883.85,475.94,883.86,475.97,883.88z"></path>
              </g>
              <g>
                <path fill="#00275c" d="M620.15,840.14c-1.23,14.45-6.25,49.15-10.28,59.12c-0.46-0.31-0.95-0.56-1.46-0.77
								c-1.64-0.68-3.49-0.88-5.33-0.76c-0.57,0.04-1.16,0.11-1.71,0.2l2.69-23.74c0.46-4.14,0.19-8.37-1.1-12.32
								c-4.44-13.66-12.54-22.1-14.5-24c-2.36-0.63-7.1-1.88-13.8-3.61c-0.96-0.25-1.96-0.51-3-0.77
								c-9.99-2.58-23.58-6.05-39.65-10.04c-4.16-1.1-7.45,0.74-7.79,1.55c-5.04,12.1-19.12,19.92-32.2,24.11
								c-2.16,0.69-3.82,2.42-4.5,4.57c-0.18,0.56-0.37,1.14-0.57,1.74c-0.02,0.07-0.04,0.14-0.07,0.21
								c-3.39,9.97-10.06,24.72-10.87,28.41c-0.01-0.01-0.02-0.02-0.04-0.02v-0.12c-0.04-0.02-0.06-0.04-0.1-0.06l-0.32-1.19
								c-0.01,0.32-0.02,0.64-0.02,0.96c-3.35-2.07-7.77-3.63-11.6-2.25c-0.41,0.14-0.79,0.32-1.16,0.51
								c-0.2-7.55-0.87-52.58-0.02-55.07c0.93-2.76,5.61-10.23,15.76-20.34c0.44-2.89,2.35-6.33,6.25-10.1
								c9.93-9.56,24.05-16.86,41.85-17.5c4.6-0.17,10.62,0.83,17.24,2.51c18.92,4.8,42.73,15.1,52.62,19.28
								c4.3,1.81,8.32,5.2,12.01,9.33c0.26,0.31,0.52,0.62,0.77,0.93c5,6.07,8.22,12.99,9.73,17.99
								C620.1,832.54,620.47,836.34,620.15,840.14z"></path>
              </g>
              <g>
                <path fill="#00275c" d="M486.88,855.61c-4.91,16.05-10.18,27.09-10.83,28.43c-0.05,0.1-0.07,0.14-0.07,0.14l-0.06-0.23
								l-0.04-0.14c0.04,0.02,0.06,0.04,0.1,0.06V884c0.01,0,0.02,0.01,0.04,0.02C476.82,880.33,483.48,865.58,486.88,855.61z"></path>
              </g>
            </g>
            <g>
              <path fill="#f5c4b3" d="M452.15,1177.63c0-0.22,0.04-0.45,0.04-0.67c-22.44,0.74-38.55-3.83-48.78-8.37
							c7.7-47.7,16.63-102.17,20.61-120.81c5.66-26.64,22.77-7.37,22.77-7.37s22.18,8.22,22.21,34.45
							C469,1102.96,460.26,1144.85,452.15,1177.63z"></path>
            </g>
            <g>
              <g>
                <path fill="#f9b295" d="M664.61,1230.46c-4.79-35.17-13.39-92.78-18.34-122.15c-12.26-72.63-38.4-66.1-48.27-62.3
								s-19.91,13.32-21.16,42.46c-1.09,25.41,41.2,174.56,64.24,189.55c0,0,19.84,9.87,25.63-7.49
								C672.51,1253.17,664.61,1230.46,664.61,1230.46z"></path>
              </g>
            </g>
            <g>
              <g>
                <path fill="#1d2028" d="M605.7,1013.58c-3.57-1.86-7.26-3.42-10.83-4.76c-12.95-4.8-24.67-6.51-24.67-6.51
								c-1.9,9.86-9.9,21.36-24.89,21.36c-31.85,0-48.57-19.73-49.26-20.69c-69.12,1-51.87,174.02-50.64,174.02
								c-0.07,0-0.15,0.04-0.15,0.04c-1.08,17.6-2.16,68.98-2.64,82.45c-0.33,10.72-4.46,25.38,17.97,30.55
								c0.56,0.11,1.12,0.22,1.71,0.33c1.19,0.26,2.42,0.45,3.68,0.63c1.6,0.22,3.39,0.48,5.28,0.78c1.27,0.19,2.57,0.41,3.98,0.63
								c0.04,0,0.07,0,0.11,0.04c1.34,0.22,2.75,0.45,4.2,0.67c2.49,0.41,5.13,0.82,7.89,1.27c1.38,0.22,2.79,0.45,4.24,0.67
								c6.1,0.93,12.73,1.9,19.79,2.72c1.27,0.15,2.57,0.3,3.87,0.45c3.83,0.41,7.74,0.82,11.79,1.15c0.19,0,0.37,0.04,0.56,0.04
								c4.13,0.33,8.37,0.6,12.65,0.82c14.21,0.6,29.13,0.33,43.94-1.53c2.27-0.26,4.5-0.6,6.73-0.97c1.45-0.22,2.87-0.48,4.32-0.74
								c0.07,0,0.11-0.04,0.19-0.04c3.13-0.56,6.21-1.23,9.3-1.97c4.39-1.15,15.89-6.92,15.11-17.9c-0.41-6.21-0.82-12.2-1.19-17.93
								c-2.86-43.5-3.98-73.11-4.84-82.94C610.45,1154.78,609.28,1015.41,605.7,1013.58z M449.54,1177c0.86,0,1.75,0,2.64-0.04
								C452.18,1177.07,450.96,1177.04,449.54,1177z"></path>
              </g>
            </g>
            <g>
              <path fill="#1d2028" d="M658.99,1156.42c0-0.22-11.11-104.22-43.2-136.48c-2.77-2.78-6.51-4.54-10.08-6.36
							c-3.57-1.86-7.26-3.42-10.83-4.76c-66.22-17.92-10.02,126.39,7.62,168.81c3.58-0.6,8.57-0.6,11.43-1.41
							C640.64,1172.72,648.31,1168.55,658.99,1156.42z"></path>
            </g>
            <g>
              <path fill="#e93d3f" d="M449.54,1177c0.86,0,1.75,0,2.64-0.04C452.18,1177.07,450.96,1177.04,449.54,1177z"></path>
            </g>
            <g>
              <path fill="#10171c" d="M595.55,1296.96c-0.07,0-0.11,0.04-0.19,0.04c-1.15,0.37-2.72,0.56-4.32,0.74
							c-2.46,0.26-5.1,0.45-6.73,0.97c-14.81,1.86-29.73,2.12-43.94,1.53c-4.28-0.22-8.52-0.48-12.65-0.82
							c-0.19,0-0.37-0.04-0.56-0.04c-4.06-0.33-7.96-0.74-11.79-1.15c-1.3-0.15-2.6-0.3-3.87-0.45c-7.07-0.82-13.69-1.79-19.79-2.72
							c-1.45-0.22-2.87-0.45-4.24-0.67c-2.75-0.45-5.4-0.86-7.89-1.27c-1.49-0.22-2.87-0.45-4.2-0.67
							c-0.04-0.04-0.07-0.04-0.11-0.04c-1.41-0.22-2.72-0.45-3.98-0.63c-1.9-0.3-3.68-0.56-5.28-0.78
							c-1.27-0.19-2.49-0.37-3.68-0.63c-0.6-0.11-1.15-0.22-1.71-0.33c-22.44-5.17-18.31-19.83-17.97-30.55
							c0.48-13.47,1.56-64.85,2.64-82.45c0,0,0.07-0.04,0.15-0.04c-1.23,0,28.13-4.06,30.29-5.1c0,0-14.96,79.07-14.96,93.5
							C460.74,1279.81,513.73,1302.54,595.55,1296.96z"></path>
            </g>
            <g>
              <g>
                <path fill="#f9b295" d="M426.66,1272.14c11.35-34.66,34.84-117.8,43.43-147.17c21.25-72.63-1.1-77.13-11.92-78.04
								c-10.82-0.91-24.38,3.38-38.6,29.76c-12.4,22.99-46.87,170.15-27.18,208.99C397.68,1297.2,418.1,1288.17,426.66,1272.14z"></path>
              </g>
            </g>
            <g>
              <g>
                <path fill="#1d2028" d="M414.86,1059.83c-15.03,55.74-25.12,100.69-25.12,100.69s4.43,4.02,13.66,8.07
								c8.6,3.8,52.19,9.04,70.51,3.26c0,0,0,0,0.04,0c1.15,0.04,3.39,0.11,3.39,0.11l10.75-34.39c12.83-41.04,16-84.45,9.3-126.85
								c-0.71-4.47-4.96-7.48-9.43-6.77C469.72,1006.87,426.08,1018.15,414.86,1059.83z"></path>
              </g>
            </g>
            <g>
              <g>
                <path fill="#efc99a" d="M598.94,1307.77c1.36,2.89,2.83,5.72,4.37,8.51c1.55,2.78,3.16,5.53,4.94,8.17
								c1.76,2.65,3.68,5.2,5.87,7.49c1.1,1.14,2.26,2.23,3.56,3.14c1.29,0.92,2.71,1.68,4.27,2.04c-1.58-0.27-3.06-0.97-4.41-1.83
								c-1.35-0.88-2.56-1.95-3.7-3.07c-2.28-2.26-4.21-4.84-6.01-7.48c-1.76-2.67-3.39-5.43-4.87-8.26
								C601.49,1313.63,600.14,1310.73,598.94,1307.77z"></path>
              </g>
            </g>
          </g>
        </g>
        <g>
          <path fill="#f9b295" d="M574,1299.51c0,0-132.83-45.31-142.23-47.43c-23.75-5.35-67.74,22.62-25.16,46.02
					c10.35,5.69,142.97,33.72,147.49,29.54C558.64,1323.47,574,1299.51,574,1299.51z"></path>
        </g>
        <g>
          <g>
            <path fill="#323b40" d="M463.19,1325.91h112.96v19.72H463.19c-5.45,0-9.86-4.41-9.86-9.86l0,0
						C453.33,1330.32,457.75,1325.91,463.19,1325.91z"></path>
          </g>
          <g>
            <path fill="#323b40" d="M540.31,1346.19h196.55c5.61,0,10.58-3.64,12.28-8.99l44.56-140.6c1.63-5.16-2.22-10.41-7.62-10.41H589.52
						c-5.61,0-10.58,3.64-12.28,8.99l-44.56,140.6C531.06,1340.93,534.9,1346.19,540.31,1346.19z"></path>
          </g>
          <g>
            <path fill="#63729b" d="M548.77,1346.19h196.55c5.61,0,10.58-3.64,12.28-8.99l44.56-140.6c1.63-5.16-2.22-10.41-7.62-10.41H597.97
						c-5.61,0-10.58,3.64-12.28,8.99l-44.56,140.6C539.51,1340.93,543.36,1346.19,548.77,1346.19z"></path>
          </g>
          <g>
            <path fill="#7b8dbf" d="M657.16,1276.29h27.52c6.62,0,12.48-4.28,14.51-10.58l1.25-3.9c0.91-2.82-1.2-5.71-4.16-5.71h-27.53
						c-6.61,0-12.47,4.27-14.49,10.57l-1.26,3.92C652.09,1273.4,654.2,1276.29,657.16,1276.29z"></path>
          </g>
          <g>
            <path fill="#566387" d="M541.14,1335.78l40.92-129.13c9.01,92.99,103.55,129.68,179.29,118.7l-3.76,11.86
						c-1.7,5.35-6.66,8.99-12.28,8.99H548.77C543.36,1346.19,539.51,1340.93,541.14,1335.78z"></path>
          </g>
        </g>
      </g>
    </g>
    <g>
      <g>
        <g>
          <g>
            <g>
              <g>
                <g>
                  <path fill="#348c93" d="M1518.58,1220.78c-11.13-6.99-23.88-11.38-36.96-12.72c-6.04-0.62-12.64-0.44-17.48,3.21
									c-1.03,0.78-2.03,1.92-1.8,3.19c0.17,0.93,0.96,1.61,1.71,2.18C1479.09,1228.12,1501.84,1229.56,1518.58,1220.78"></path>
                </g>
              </g>
            </g>
          </g>
          <g>
            <g>
              <g>
                <g>
                  <path fill="#348c93" d="M1517.64,1219.73c-8.37-6.53-16.78-13.1-23.87-21c-7.09-7.9-12.85-17.28-14.97-27.68
									c-0.64-3.15-0.84-6.76,1.18-9.26C1499.01,1176.65,1513.96,1195.87,1517.64,1219.73"></path>
                </g>
              </g>
            </g>
          </g>
          <g>
            <g>
              <g>
                <g>
                  <path fill="#348c93" d="M1518.39,1220.63c-1.43-10.41-1.95-21.11,0.44-31.34c2.39-10.23,7.96-20.02,16.69-25.86
									c3.29,7.69,1.87,16.54-0.44,24.57c-3.58,12.41-9.19,24.23-16.55,34.85"></path>
                </g>
              </g>
            </g>
          </g>
          <g>
            <g>
              <g>
                <g>
                  <path fill="#348c93" d="M1537.04,1254.05c-11.32,1.38-21.18,7.34-29.64,15c-8.45,7.66-14.46,17.97-16.95,29.1
									c11.11-0.69,20.53-8.52,27.36-17.3c6.83-8.78,11.57-18.42,19.07-26.63"></path>
                </g>
              </g>
            </g>
          </g>
          <g>
            <g>
              <g>
                <g>
                  <path fill="#348c93" d="M1541.09,1259.4c-9.12-22.46-5.82-49.53,8.44-69.15C1555.98,1213.2,1553.61,1239.12,1541.09,1259.4"></path>
                </g>
              </g>
            </g>
          </g>
          <g>
            <g>
              <g>
                <g>
                  <path fill="#348c93" d="M1565.74,1288.74c-10.28-0.64-20.72,1.81-29.65,6.95c-8.92,5.14-16.29,12.94-20.9,22.15
									c-0.63,1.25-1.18,2.84-0.34,3.96c0.73,0.97,2.14,1.06,3.35,0.99c9.96-0.65,18.79-6.64,26.07-13.46
									c7.28-6.82,13.63-14.71,21.68-20.61"></path>
                </g>
              </g>
            </g>
          </g>
          <g>
            <g>
              <g>
                <g>
                  <path fill="#348c93" d="M1564.95,1287.15c-5.3-16.96-5.63-35.44-0.94-52.58c1.85-6.77,4.96-13.89,11.22-17.07
									c0.53-0.27,1.16-0.51,1.72-0.3c0.53,0.2,0.84,0.74,1.08,1.26c2.23,4.65,2.88,9.93,2.65,15.09
									c-0.23,5.15-1.3,10.23-2.36,15.27c-1.97,9.33-3.02,19.36-8.14,27.41c-1.22,1.91-2.29,3.97-3.25,6.02
									c-0.97,2.05-0.98,2.77-1.86,4.39"></path>
                </g>
              </g>
            </g>
          </g>
          <g>
            <g>
              <g>
                <g>
                  <path fill="#348c93" d="M1630.19,1296.87c-4.83-18.38,0.3-40.67,11.88-55.74c0.85-1.11,1.98-2.3,3.38-2.17
									c2.13,0.2,2.69,3.04,2.59,5.18C1647.2,1262.92,1640.93,1281.43,1630.19,1296.87"></path>
                </g>
              </g>
            </g>
          </g>
          <g>
            <g>
              <g>
                <g>
                  <path fill="#348c93" d="M1636.07,1300.89c22.34,5.81,47.96,0.16,66.54-13.53c-11.01-5.58-23.99-7.17-36.02-4.42
									C1654.55,1285.69,1643.56,1291.08,1636.07,1300.89"></path>
                </g>
              </g>
            </g>
          </g>
          <g>
            <g>
              <g>
                <g>
                  <path fill="#348c93" d="M1641.03,1288.65c12.51-20.39,36.49-33.71,60.39-34.92c-2.75,9.72-10.74,17.27-19.75,21.84
									s-19.07,6.55-28.99,8.48C1648.82,1284.79,1643.53,1285.62,1641.03,1288.65"></path>
                </g>
              </g>
            </g>
          </g>
          <g>
            <g>
              <g>
                <g>
                  <path fill="#348c93" d="M1631.43,1229.25c3.39-11.61,6.79-23.31,7.72-35.37c0.93-12.05-0.79-24.64-7.04-34.98
									c-11.69,22.61-12.87,49.03-1.03,71.56"></path>
                </g>
              </g>
            </g>
          </g>
          <g>
            <g>
              <g>
                <g>
                  <path fill="#348c93" d="M1670.77,1209.36c13.67-24.84,41.54-44.67,69.75-47.45C1729.64,1189,1699.96,1209.94,1670.77,1209.36"></path>
                </g>
              </g>
            </g>
          </g>
          <g>
            <g>
              <g>
                <g>
                  <path fill="#348c93" d="M1662.17,1214.23c20.38,3.1,37.74,16.12,56.79,24.01c4.07,1.69,8.47,3.03,12.84,2.46
									c4.37-0.57,8.68-3.51,9.66-7.8c0.81-3.57-0.81-7.36-3.37-9.97c-2.56-2.62-5.94-4.25-9.32-5.66
									c-20.74-8.64-42.99-8.85-64.84-3.61"></path>
                </g>
              </g>
            </g>
          </g>
          <g>
            <g>
              <g>
                <g>
                  <path fill="#348c93" d="M1650.38,1228.52c4.61,1.32,6.19,3.71,9.84,6.82c12.4,10.56,27.26,18.19,43.06,22.12
									c1.65,0.41,3.8,0.57,4.62-0.91c0.71-1.3-0.19-2.87-1.11-4.03c-6.62-8.28-16.06-13.95-26-17.65
									c-9.94-3.7-18.55-8.16-30.41-7.2"></path>
                </g>
              </g>
            </g>
          </g>
          <g>
            <g>
              <g>
                <g>
                  <path fill="#348c93" d="M1637.07,1142.19c16.57,15.47,39.91,23.41,62.48,21.26c1.03-0.1,2.15-0.26,2.84-1.02
									c1.57-1.71-0.31-4.35-2.15-5.78C1681.88,1142.33,1659.63,1136.39,1637.07,1142.19"></path>
                </g>
              </g>
            </g>
          </g>
          <g>
            <g>
              <g>
                <g>
                  <path fill="#348c93" d="M1652.85,1136.42c21.91-16.42,51.94-21.38,77.96-12.86c-9.82,9.68-23.44,14.88-37.15,16.31
									C1679.95,1141.29,1666.22,1139.77,1652.85,1136.42"></path>
                </g>
              </g>
            </g>
          </g>
          <g>
            <g>
              <g>
                <g>
                  <path fill="#348c93" d="M1646.58,1096.75c-1.8-18.34-0.63-32.81-1.91-51.23c-0.1-1.47-0.42-3.24-1.79-3.77
									c-1.92-0.74-3.52,1.62-4.14,3.57c-5.46,16.98-2.48,36.46,7.82,51.02"></path>
                </g>
              </g>
            </g>
          </g>
          <g>
            <g>
              <g>
                <g>
                  <path fill="#348c93" d="M1645.26,1098.78c12.43-7.69,21.75-17.72,30.37-29.52c6-8.21,11.06-18.04,9.69-28.12
									c-8.42-0.17-16.43,4.48-21.91,10.88c-5.48,6.4-8.74,14.4-11.17,22.47C1649.82,1082.56,1648.11,1090.85,1645.26,1098.78"></path>
                </g>
              </g>
            </g>
          </g>
          <g>
            <g>
              <g>
                <g>
                  <path fill="#348c93" d="M1675.1,1090.48c27.27-10.09,52.72-25.09,74.75-44.07c-8.93-3.6-19.15-1.44-28.08,2.16
									c-20.39,8.23-37.06,22.13-47.06,41.72"></path>
                </g>
              </g>
            </g>
          </g>
          <g>
            <g>
              <g>
                <g>
                  <path fill="#348c93" d="M1653.65,1108.81c13.8,1.51,27.81,2.49,41.5,0.2c13.46-2.25,26.17-7.58,38.75-12.87
									c1.04-0.44,2.18-0.96,2.63-2c0.5-1.12-0.03-2.49-0.94-3.32c-0.91-0.82-2.12-1.22-3.3-1.55c-13.67-3.82-28.42-2.03-41.87,2.5
									C1676.96,1096.31,1665.94,1101.7,1653.65,1108.81"></path>
                </g>
              </g>
            </g>
          </g>
          <g>
            <g>
              <g>
                <g>
                  <path fill="#348c93" d="M1574.86,1142.82c-9.41-19-8.8-41.18-0.67-60.76c5.72,8.72,6.42,19.83,5.38,30.21
									c-1.05,10.38-4.21,21.06-4.41,31.5"></path>
                </g>
              </g>
            </g>
          </g>
          <g>
            <g>
              <g>
                <g>
                  <path fill="#348c93" d="M1537.26,1123.85c-23.5-0.45-47.02,9.57-62.97,26.83c11.73,1.84,23.81-1.18,34.48-6.39
									c10.67-5.21,20.15-12.52,29.55-19.78"></path>
                </g>
              </g>
            </g>
          </g>
          <g>
            <g>
              <g>
                <g>
                  <path fill="#348c93" d="M1511.97,1115.4c-11.5-0.93-22.56-2.36-33.62,1.03c-11.06,3.39-21.12,11.08-25.62,21.73
									c10.75,1.21,21.66-1.48,31.52-5.95C1494.11,1127.74,1503.07,1121.55,1511.97,1115.4"></path>
                </g>
              </g>
            </g>
          </g>
          <g>
            <g>
              <g>
                <g>
                  <path fill="#348c93" d="M1549.41,1115.78c-10.34-6.78-20.97-13.68-33.01-16.49c-12.04-2.81-26-0.73-34.4,8.34
									c9.75,5.72,21.58,6.4,32.88,6.39c11.3-0.01,25.16-0.14,35.82,3.63"></path>
                </g>
              </g>
            </g>
          </g>
          <g>
            <g>
              <g>
                <g>
                  <path fill="#348c93" d="M1549.47,1116.33c-17.68-17.36-24.39-48.56-17.27-72.3
									C1546.1,1065.15,1552.32,1091.21,1549.47,1116.33"></path>
                </g>
              </g>
            </g>
          </g>
          <g>
            <g>
              <g>
                <g>
                  <path fill="#348c93" d="M1598.1,1067.13c3.33-7.75,5.68-15.89,8.67-23.78c2.99-7.89,6.71-15.66,12.36-21.93
									c5.65-6.27,13.47-10.93,21.9-11.35c-5.28,23.89-21.15,45.24-42.51,57.18"></path>
                </g>
              </g>
            </g>
          </g>
          <g>
            <g>
              <g>
                <g>
                  <path fill="#348c93" d="M1589.3,1077.38c-5.52-7.6-11.9-17.91-19.38-23.58c-7.48-5.67-17.23-9.1-26.36-6.92
									C1552.84,1063.49,1570.4,1075.19,1589.3,1077.38"></path>
                </g>
              </g>
            </g>
          </g>
          <g>
            <g>
              <g>
                <g>
                  <path fill="#348c93" d="M1591.06,1067.76c-3.62-9.19-7.26-18.48-8.72-28.25c-1.46-9.77-0.57-20.2,4.42-28.73
									c9.71,18.35,12.83,38.05,4.8,57.19"></path>
                </g>
              </g>
            </g>
          </g>
          <g>
            <g>
              <g>
                <g>
                  <path fill="#348c93" d="M1598.18,1010.78c5.5-18.19,22.15-31.58,40.14-37.73c2.27-0.77,4.67-1.42,7.04-1.05
									c2.37,0.37,4.69,1.99,5.19,4.33c0.66,3.09-1.9,5.87-4.3,7.92C1632.24,996.23,1615.78,1005.31,1598.18,1010.78"></path>
                </g>
              </g>
            </g>
          </g>
          <g>
            <g>
              <g>
                <g>
                  <path fill="#348c93" d="M1598.38,995.91c0.7-11.73,1.43-23.63,5.25-34.74c3.81-11.11,11.17-21.54,21.86-26.4
									c1.82,11.85-3.41,23.63-9.71,33.82c-6.3,10.19-13.9,19.81-17.69,31.18"></path>
                </g>
              </g>
            </g>
          </g>
          <g>
            <g>
              <g>
                <g>
                  <path fill="#348c93" d="M1598.1,1003.98c-4.54-13.26-5.01-30.1-12.95-41.64c-5.55-8.07-14.44-13.57-19.22-22.12
									c-3.18,7.99-2.2,17.19,1.12,25.11c3.32,7.93,8.81,14.75,14.69,21.02C1587.6,992.63,1592.63,997.34,1598.1,1003.98"></path>
                </g>
              </g>
            </g>
          </g>
          <g>
            <g>
              <g>
                <g>
                  <g>
                    <path fill="#348c93" d="M1598.18,1395.57c-1.19,0-1.22-1.05-1.26-2.17c-0.02-0.68-0.04-1.69-0.07-3.01
										c-0.04-2.63-0.08-6.52-0.12-11.52c-0.08-9.95-0.15-24.19-0.21-42.33c-0.13-37.29-0.21-86.89-0.22-139.65
										c-0.01-52.76,0.04-102.36,0.16-139.68c0.05-18.14,0.12-32.38,0.19-42.33c0.04-5,0.08-8.88,0.12-11.52
										c0.02-1.32,0.04-2.33,0.06-3.01c0.03-1.12,0.07-2.17,1.25-2.17s1.22,1.05,1.26,2.17c0.02,0.68,0.04,1.69,0.07,3.01
										c0.04,2.63,0.08,6.52,0.12,11.52c0.08,9.95,0.15,24.19,0.21,42.33c0.13,37.3,0.21,86.9,0.22,139.68
										c0.01,52.74-0.04,102.34-0.16,139.65c-0.05,18.14-0.12,32.38-0.19,42.33c-0.04,5-0.08,8.89-0.12,11.52
										c-0.02,1.32-0.04,2.33-0.06,3.01C1599.4,1394.52,1599.37,1395.57,1598.18,1395.57z"></path>
                  </g>
                </g>
              </g>
            </g>
          </g>
          <g>
            <g>
              <g>
                <g>
                  <g>
                    <path fill="#348c93" d="M1598.14,1171.14c-0.08,0-0.17-0.01-0.27-0.03c-1.15-0.19-1.02-1.37-0.93-2.23
										c0.11-0.66,0.28-1.65,0.71-2.85c1-2.92,3.14-6.02,5.86-8.48c2.94-2.68,7.05-5.24,12.55-7.81
										c5.1-2.38,10.54-4.76,16.16-7.07c13.37-5.48,24.61-9.16,30.12-10.86c4.08-1.27,7.33-2.18,9.33-2.72
										c3.94-1.03,4.55-1.19,4.92,0.03l0,0.01c0.35,1.22-0.24,1.42-4.09,2.71l-9.15,3.09c-10.26,3.49-20.27,7.24-29.75,11.12
										c-1.86,0.8-3.73,1.58-5.56,2.35c-8.95,3.76-17.4,7.3-22.36,11.6c-3.25,2.78-4.75,5.62-5.36,7.07
										c-0.51,1.2-0.76,2.11-0.91,2.65C1599.32,1170.17,1599.05,1171.14,1598.14,1171.14z"></path>
                  </g>
                </g>
              </g>
            </g>
          </g>
          <g>
            <g>
              <g>
                <g>
                  <g>
                    <path fill="#348c93" d="M1604.14,1160.42c-0.24,0-0.48-0.09-0.74-0.31c-0.93-0.75-0.31-1.59,0.56-2.76l0.25-0.33
										c0.53-0.7,1.24-1.66,2.17-2.8c2.44-3.07,5.76-6.96,9.35-10.93c9.08-10.09,21.08-21.88,33.81-33.21
										c16.16-14.3,29.19-25.64,35.52-31.13l10.87-9.32l3.01-2.5c1.1-0.89,1.96-1.58,2.76-0.67c0.79,0.9,0.04,1.63-1,2.63
										l-2.85,2.68l-11.03,10.02l-34.84,31.03c-16.85,15-28.42,26.92-33.82,32.7c-4.25,4.53-7.55,8.25-9.57,10.56l-2.56,2.93
										C1605.3,1159.8,1604.74,1160.42,1604.14,1160.42z"></path>
                  </g>
                </g>
              </g>
            </g>
          </g>
          <g>
            <g>
              <g>
                <g>
                  <g>
                    <path fill="#348c93" d="M1636.41,1125.63c-0.18,0-0.37-0.06-0.58-0.15c-1.22-0.54-1.09-0.89,1.09-6.64
										c0.98-2.6,2.33-6.16,3.65-10.02c1.64-4.75,2.78-9.07,3.53-11.93c1.02-3.88,1.17-4.48,2.41-4.28l0.52,0.09l0.31,0.47
										c0.79,1.23-0.92,9.88-3.31,16.84c-1.57,4.62-3.22,8.39-4.33,10.75C1637.92,1124.5,1637.24,1125.63,1636.41,1125.63z"></path>
                  </g>
                </g>
              </g>
            </g>
          </g>
          <g>
            <g>
              <g>
                <g>
                  <g>
                    <path fill="#348c93" d="M1598.24,1179.18c-0.67,0-1.35-0.87-3.03-2.98l-5.44-6.98c-5.11-6.61-11.13-14.37-17.94-22.95
										c-6.85-8.63-13.03-16.23-18.28-22.68l-5.56-6.88c-2.27-2.86-2.74-3.45-1.76-4.28c0.96-0.82,1.47-0.27,3.94,2.4
										c1.43,1.55,3.47,3.85,5.89,6.64c3.31,3.82,10.14,11.83,18.63,22.52c8.46,10.67,14.72,19.15,17.7,23.25
										c2.16,2.98,3.94,5.48,5.13,7.25c2.04,2.99,2.46,3.62,1.45,4.38l-0.02,0.01C1598.7,1179.07,1598.47,1179.18,1598.24,1179.18
										z"></path>
                  </g>
                </g>
              </g>
            </g>
          </g>
          <g>
            <g>
              <g>
                <g>
                  <g>
                    <path fill="#348c93" d="M1581.32,1156.16c-0.21,0.22-4.73-5.14-7.1-13.29c-1.75-5.74-1.83-11-1.61-13.4l0.56,0.05
										c-0.25,1.02-0.44,1.56-0.54,1.55c-0.1-0.02-0.11-0.59-0.02-1.64l0.56,0.05c0.21,2.38,0.57,7.45,2.27,13.03
										C1577.73,1150.41,1581.66,1155.95,1581.32,1156.16z"></path>
                  </g>
                </g>
              </g>
            </g>
          </g>
          <g>
            <g>
              <g>
                <g>
                  <g>
                    <path fill="#348c93" d="M1559.48,1129.86c-0.55,0-1.07-0.41-1.34-0.63c-0.69-0.55-1.96-1.57-4.06-2.34
										c-2.96-1.14-7.65-1.5-13.25-1.03c-4.45,0.33-9.04,1.07-13.67,2.21c-1.26,0.31-2.34,0.6-3.21,0.83
										c-2.74,0.73-3.48,0.93-3.89-0.21l-0.18-0.47l0.22-0.48c0.33-0.69,2.41-1.65,6.17-2.84c2.54-0.8,7.78-2.22,14.28-2.69
										c6.1-0.52,11.36,0.05,14.78,1.64c3.14,1.39,5.4,3.73,5.31,4.88l-0.07,0.84l-0.62,0.17
										C1559.79,1129.82,1559.63,1129.86,1559.48,1129.86z"></path>
                  </g>
                </g>
              </g>
            </g>
          </g>
          <g>
            <g>
              <g>
                <g>
                  <g>
                    <path fill="#348c93" d="M1554.35,1123.19c-0.55,0-1.33-0.31-2.51-0.78c-1.27-0.5-3.18-1.26-5.56-2.07
										c-3.35-1.15-10.23-3.18-18.65-3.84c-8.43-0.63-15.53,0.34-19.02,0.97c-2.48,0.44-4.48,0.9-5.81,1.21
										c-2.26,0.52-3.1,0.71-3.46-0.44c-0.39-1.21,0.66-1.59,2.75-2.33c1.42-0.53,3.45-1.1,5.87-1.65
										c3.55-0.81,10.85-2.08,19.95-1.4c9.09,0.71,16.12,3.06,19.51,4.4c2.3,0.9,4.22,1.78,5.57,2.53
										c1.94,1.05,2.92,1.58,2.34,2.73C1555.09,1122.99,1554.79,1123.19,1554.35,1123.19z"></path>
                  </g>
                </g>
              </g>
            </g>
          </g>
          <g>
            <g>
              <g>
                <g>
                  <g>
                    <path fill="#348c93" d="M1597.95,1095.01c-1.06,0-1.94-2.04-6.54-20.17c-4.89-19.26-4.43-20.03-4.18-20.44l0.25-0.42
										l0.97-0.25l0.45,0.26c0.41,0.24,1.18,0.7,6.06,19.96c5.21,20.55,4.76,20.66,3.44,21l0,0
										C1598.23,1094.97,1598.09,1095.01,1597.95,1095.01z"></path>
                  </g>
                </g>
              </g>
            </g>
          </g>
          <g>
            <g>
              <g>
                <g>
                  <g>
                    <path fill="#348c93" d="M1598.35,1094.99c-0.83,0-1.22-0.92-1.85-2.41c-0.87-2.04-2.48-5.84-5.16-9.63
										c-2.8-4.16-6.18-6.85-7.8-8.15c-1.08-0.86-1.86-1.49-1.31-2.44l0.22-0.45l0.56-0.15c1.1-0.28,3.68,1.46,4.44,2
										c2.39,1.66,4.9,4.24,6.88,7.08c4,5.67,5.8,12.19,5.22,13.42l-0.3,0.63l-0.58,0.06
										C1598.56,1094.98,1598.45,1094.99,1598.35,1094.99z"></path>
                  </g>
                </g>
              </g>
            </g>
          </g>
          <g>
            <g>
              <g>
                <g>
                  <g>
                    <path fill="#348c93" d="M1598.11,1348.44c-0.96,0-1.15-0.96-1.4-2.15c-0.21-1.02-0.52-2.56-1.07-4.62
										c-0.68-2.61-2.35-8.04-5.83-15.09c-6.15-12.57-17.51-28.57-31.18-43.91c-1.43-1.63-2.84-3.24-4.24-4.83
										c-5.53-6.28-10.75-12.21-15.36-17.99c-5.69-7.11-10.57-14.14-14.09-20.32c-3.78-6.61-5.97-11.89-7.15-15.15
										c-0.73-2.07-1.17-3.42-1.42-4.38c-0.46-1.62-0.74-2.62,0.45-2.97c1.13-0.35,1.44,0.51,2.08,2.24
										c0.35,0.95,0.87,2.34,1.58,4.09c1.3,3.21,3.62,8.34,7.3,14.53c3.54,5.97,8.38,12.8,14.02,19.74
										c4.31,5.32,9.16,10.82,14.31,16.65c1.73,1.96,3.49,3.96,5.27,5.98c13.86,15.56,25.31,31.93,31.39,44.9
										c3.54,7.5,5.07,13.14,5.66,15.83c0.46,2.16,0.71,3.57,0.8,4.58c0.21,1.66,0.34,2.69-0.89,2.86
										C1598.26,1348.43,1598.18,1348.44,1598.11,1348.44z"></path>
                  </g>
                </g>
              </g>
            </g>
          </g>
          <g>
            <g>
              <g>
                <g>
                  <g>
                    <path fill="#348c93" d="M1598.3,1348.49c-0.18,0-0.37-0.06-0.61-0.16c-1.1-0.47-0.67-1.58-0.28-2.56l0.21-0.51
										c0.25-0.62,0.59-1.46,1.06-2.44c0.96-2.13,2.7-5.65,5.5-10.21c4.39-7.33,11.29-15.95,19.28-25.93l3.52-4.41
										c5.17-6.47,9.66-11.65,13.7-15.84c4.31-4.45,8.78-8.4,12.93-11.42c4.18-3.05,7.74-5,9.98-6.1
										c0.94-0.47,1.77-0.81,2.37-1.07l0.53-0.22c0.99-0.4,2.09-0.85,2.59,0.25l0,0.01c0.49,1.08-0.09,1.39-2.53,2.7l-1.64,0.89
										c-3.18,1.79-6.33,3.87-9.34,6.17c-3.94,3.02-8.2,6.91-12.33,11.25c-3.9,4.12-8.16,9.1-13.42,15.67
										c-1.92,2.41-3.82,4.77-5.67,7.06c-7.07,8.77-13.17,16.35-17.21,22.73c-2.68,4.14-4.58,7.59-5.71,9.76l-0.79,1.5
										C1599.38,1347.7,1598.96,1348.49,1598.3,1348.49z"></path>
                  </g>
                </g>
              </g>
            </g>
          </g>
          <g>
            <g>
              <g>
                <g>
                  <g>
                    <path fill="#348c93" d="M1621.12,1313.73c-0.23,0-0.48-0.09-0.73-0.29l-0.37-0.3l-0.07-0.49c-0.05-0.35-0.1-0.74,1.39-2.66
										c0.97-1.28,2.46-2.81,4.19-4.3c4.54-3.91,10.74-7.32,17.02-9.37c6.78-2.15,13.1-2.88,18.92-3.35
										c8.97-0.65,9.01-0.36,9.11,0.86c0.12,1.33,0.12,1.33-8.78,2.41l-0.61,0.08c-4.63,0.6-10.97,1.41-17.52,3.49
										c-5.75,1.87-11.6,4.94-16.05,8.42c-2.35,1.82-3.93,3.45-4.78,4.33C1622.26,1313.17,1621.72,1313.73,1621.12,1313.73z"></path>
                  </g>
                </g>
              </g>
            </g>
          </g>
          <g>
            <g>
              <g>
                <g>
                  <g>
                    <path fill="#348c93" d="M1623.42,1310.93c-0.21,0-0.42-0.07-0.64-0.21c-1.14-0.66-0.67-1.58,0.74-4.3
										c1.19-2.3,2.99-5.76,4.54-9.87c1.49-4.23,2.31-8.26,2.81-10.67c0.56-2.75,0.78-3.78,2.08-3.58
										c1.19,0.14,1.36,1.11,0.87,5.46c-0.43,3.61-1.21,6.99-2.32,10.05c-1.11,3.05-2.62,6.06-4.6,9.2
										C1625.11,1309.82,1624.25,1310.93,1623.42,1310.93z"></path>
                  </g>
                </g>
              </g>
            </g>
          </g>
          <g>
            <g>
              <g>
                <g>
                  <g>
                    <path fill="#348c93" d="M1598.29,1296.51c-0.14,0-0.29-0.03-0.45-0.08c-1.19-0.4-0.83-1.48-0.38-2.85l1.31-3.8
										c0.73-2.17,1.48-4.07,2.35-6c0.24-0.55,0.49-1.13,0.75-1.74c0.77-1.81,1.64-3.86,2.76-5.97l2.18-4.34
										c0.52-1.02,1.09-1.99,1.69-3.02c0.31-0.54,0.63-1.08,0.94-1.64c1.47-2.7,3.23-5.39,5.1-8.24l1.14-1.74
										c5.25-7.56,10.98-14.59,17.04-20.93c6.13-6.28,12.96-12.24,20.31-17.73l1.73-1.22c2.78-1.96,5.4-3.81,8.06-5.38
										c0.53-0.32,1.05-0.65,1.58-0.98c1.02-0.64,1.97-1.24,2.97-1.79l4.29-2.35c2.05-1.18,4.07-2.12,5.85-2.95
										c0.59-0.28,1.17-0.55,1.72-0.81c1.87-0.92,3.81-1.76,5.91-2.55l3.73-1.43c1.41-0.52,2.42-0.89,2.87,0.26l0.01,0.02
										c0.4,1.08-0.49,1.51-1.84,2.15l-3.65,1.66c-1.47,0.63-3.42,1.49-5.64,2.67c-0.62,0.32-1.26,0.64-1.92,0.97
										c-1.74,0.86-3.53,1.76-5.41,2.89l-4.25,2.41c-0.9,0.52-1.8,1.1-2.76,1.72c-0.54,0.35-1.09,0.71-1.65,1.06
										c-2.48,1.5-4.95,3.28-7.57,5.16l-1.93,1.38c-7.16,5.43-13.82,11.3-19.78,17.4c-5.9,6.17-11.53,13.03-16.73,20.39
										l-1.28,1.92c-1.8,2.69-3.49,5.23-4.91,7.75c-0.34,0.59-0.68,1.15-1.01,1.71c-0.58,0.97-1.13,1.89-1.63,2.81l-2.25,4.29
										c-1.07,1.94-1.9,3.76-2.71,5.52c-0.31,0.68-0.61,1.33-0.9,1.96c-1.1,2.27-1.9,4.25-2.47,5.71l-1.54,3.71
										C1599.42,1295.68,1599.06,1296.51,1598.29,1296.51z"></path>
                  </g>
                </g>
              </g>
            </g>
          </g>
          <g>
            <g>
              <g>
                <g>
                  <g>
                    <path fill="#348c93" d="M1635.37,1236.69c-0.11-0.02,0.5-2.16,3.04-4.53c2.47-2.36,6.99-4.54,12.25-4.7
										c5.24-0.14,9.78,1.33,12.89,2.52c3.12,1.23,4.93,2.22,4.87,2.37c-0.07,0.18-2.02-0.52-5.17-1.51
										c-3.14-0.96-7.58-2.23-12.55-2.09c-4.95,0.15-9.22,2.06-11.7,4.11C1636.46,1234.89,1635.57,1236.82,1635.37,1236.69z"></path>
                  </g>
                </g>
              </g>
            </g>
          </g>
          <g>
            <g>
              <g>
                <g>
                  <g>
                    <path fill="#348c93" d="M1626.88,1246.5l-0.4-0.27c-1.01-0.6-0.53-1.64,0.02-2.83c0.85-1.84,2.42-5.25,2.9-9.62
										c0.55-4.38-0.2-8.07-0.6-10.05c-0.26-1.28-0.48-2.39,0.61-2.75l0.45-0.18l0.51,0.24c0.9,0.44,1.66,2.72,2.02,4.04
										c0.77,2.71,1,6.04,0.65,9.12c-0.36,3.08-1.36,6.26-2.73,8.73c-0.66,1.2-1.92,3.24-2.9,3.46L1626.88,1246.5z"></path>
                  </g>
                </g>
              </g>
            </g>
          </g>
        </g>
        <g>
          <g>
            <g>
              <g>
                <path fill="#ff5f4a" d="M1537.11,1359.91c1.91,33.8,12.09,68.17,27.75,102.92h68.12c14.94-34.41,24.42-68.72,26.11-102.92
								H1537.11z"></path>
              </g>
            </g>
          </g>
        </g>
      </g>
      <g>
        <g>
          <rect width="132.93" height="17.51" x="1530.63" y="1359.91" fill="#ce4949"></rect>
        </g>
      </g>
    </g>
    <g>
      <g>
        <g>
          <g>
            <g>
              <g>
                <g>
                  <g>
                    <g>
                      <polygon fill="#af7a4a" points="1037.62 1369.88 1037.62 1461.94 1172.25 1461.94 1320.75 1461.94 1320.75 1369.88"></polygon>
                    </g>
                  </g>
                </g>
              </g>
            </g>
          </g>
        </g>
        <g>
          <g>
            <g>
              <g>
                <g>
                  <g>
                    <g>
                      <polygon fill="#deb172" points="1025.74 1344.14 1025.74 1369.88 1330.65 1369.88 1330.65 1344.14 1172.25 1344.14"></polygon>
                    </g>
                  </g>
                </g>
              </g>
            </g>
          </g>
        </g>
        <g>
          <g>
            <g>
              <g>
                <g>
                  <g>
                    <g>
                      <polygon fill="#deb172" points="1172.25 1461.94 1320.75 1461.94 1320.75 1369.88 1330.65 1369.88 1330.65 1344.14 1172.25 1344.14 1172.25 1367.49"></polygon>
                    </g>
                  </g>
                </g>
              </g>
            </g>
          </g>
        </g>
        <g>
          <g>
            <g>
              <g>
                <g>
                  <g>
                    <g>
                      <rect width="57.42" height="13.86" x="1077.22" y="1384.72" fill="#ded0b9"></rect>
                    </g>
                  </g>
                </g>
              </g>
            </g>
          </g>
        </g>
        <g>
          <g>
            <g>
              <g>
                <g>
                  <g>
                    <g>
                      <rect width="73.73" height="29.26" x="1069.83" y="1415.91" fill="#eedfc4"></rect>
                    </g>
                  </g>
                </g>
              </g>
            </g>
          </g>
        </g>
      </g>
    </g>
    <g>
      <g>
        <g>
          <g>
            <g>
              <g>
                <g>
                  <g>
                    <g>
                      <polygon fill="#af7a4a" points="1081.18 1252.19 1081.18 1344.26 1215.81 1344.26 1364.3 1344.26 1364.3 1252.19"></polygon>
                    </g>
                  </g>
                </g>
              </g>
            </g>
          </g>
        </g>
        <g>
          <g>
            <g>
              <g>
                <g>
                  <g>
                    <g>
                      <polygon fill="#deb172" points="1069.3 1226.45 1069.3 1252.19 1374.2 1252.19 1374.2 1226.45 1215.81 1226.45"></polygon>
                    </g>
                  </g>
                </g>
              </g>
            </g>
          </g>
        </g>
        <g>
          <g>
            <g>
              <g>
                <g>
                  <g>
                    <g>
                      <polygon fill="#deb172" points="1215.81 1344.26 1364.3 1344.26 1364.3 1252.19 1374.2 1252.19 1374.2 1226.45 1215.81 1226.45 1215.81 1249.81"></polygon>
                    </g>
                  </g>
                </g>
              </g>
            </g>
          </g>
        </g>
        <g>
          <g>
            <g>
              <g>
                <g>
                  <g>
                    <g>
                      <rect width="57.42" height="13.86" x="1120.78" y="1267.04" fill="#ded0b9"></rect>
                    </g>
                  </g>
                </g>
              </g>
            </g>
          </g>
        </g>
        <g>
          <g>
            <g>
              <g>
                <g>
                  <g>
                    <g>
                      <rect width="73.73" height="29.26" x="1113.39" y="1298.22" fill="#eedfc4"></rect>
                    </g>
                  </g>
                </g>
              </g>
            </g>
          </g>
        </g>
      </g>
    </g>
    <g>
      <g>
        <g>
          <g>
            <g>
              <g>
                <g>
                  <polygon fill="#ba9170" points="1069.3 1252 1069.3 1254.57 1374.2 1254.57 1374.2 1252 1215.81 1252"></polygon>
                </g>
              </g>
            </g>
          </g>
        </g>
      </g>
    </g>
    <g>
      <g>
        <g>
          <g>
            <g>
              <g>
                <g>
                  <polygon fill="#ba9170" points="1025.74 1369.88 1025.74 1372.45 1330.65 1372.45 1330.65 1369.88 1172.25 1369.88"></polygon>
                </g>
              </g>
            </g>
          </g>
        </g>
      </g>
    </g>
    <g>
      <g>
        <g>
          <path fill="#cbd9ff" d="M575.86,707.18H349.25c-5.45,0-9.87-4.42-9.87-9.87V586.95c0-5.45,4.42-9.87,9.87-9.87h226.62
					c5.45,0,9.87,4.42,9.87,9.87v110.36C585.73,702.76,581.31,707.18,575.86,707.18z"></path>
        </g>
        <g>
          <g>
            <path fill="#fff" d="M492.39,608.94h-31.97c-0.69,0-1.25-1.07-1.25-2.38l0,0c0-1.31,0.56-2.38,1.25-2.38h31.97
						c0.69,0,1.25,1.07,1.25,2.38l0,0C493.64,607.88,493.08,608.94,492.39,608.94z"></path>
          </g>
          <g>
            <path fill="#fff" d="M548.86,608.94h-49.54c-0.69,0-1.25-1.07-1.25-2.38l0,0c0-1.31,0.56-2.38,1.25-2.38h49.54
						c0.69,0,1.25,1.07,1.25,2.38l0,0C550.11,607.88,549.55,608.94,548.86,608.94z"></path>
          </g>
          <g>
            <path fill="#fff" d="M567.4,608.94h-10.4c-0.6,0-1.09-0.93-1.09-2.07l0,0c0-1.14,0.49-2.07,1.09-2.07h10.4
						c0.6,0,1.09,0.93,1.09,2.07l0,0C568.49,608.02,568,608.94,567.4,608.94z"></path>
          </g>
          <g>
            <path fill="#fff" d="M567.24,633.53H460.41c-0.69,0-1.25-1.07-1.25-2.38l0,0c0-1.31,0.56-2.38,1.25-2.38h106.83
						c0.69,0,1.25,1.07,1.25,2.38l0,0C568.49,632.47,567.93,633.53,567.24,633.53z"></path>
          </g>
          <g>
            <path fill="#fff" d="M492.39,680.07h-31.97c-0.69,0-1.25-1.07-1.25-2.38v0c0-1.31,0.56-2.38,1.25-2.38h31.97
						c0.69,0,1.25,1.07,1.25,2.38l0,0C493.64,679,493.08,680.07,492.39,680.07z"></path>
          </g>
          <g>
            <path fill="#fff" d="M548.86,680.07h-49.54c-0.69,0-1.25-1.07-1.25-2.38l0,0c0-1.31,0.56-2.38,1.25-2.38h49.54
						c0.69,0,1.25,1.07,1.25,2.38l0,0C550.11,679,549.55,680.07,548.86,680.07z"></path>
          </g>
          <g>
            <path fill="#fff" d="M513.57,655.48h-53.16c-0.69,0-1.25-1.07-1.25-2.38l0,0c0-1.31,0.56-2.38,1.25-2.38h53.16
						c0.69,0,1.25,1.07,1.25,2.38l0,0C514.82,654.41,514.26,655.48,513.57,655.48z"></path>
          </g>
          <g>
            <path fill="#fff" d="M567.24,655.48h-40.93c-0.69,0-1.25-1.07-1.25-2.38l0,0c0-1.31,0.56-2.38,1.25-2.38h40.93
						c0.69,0,1.25,1.07,1.25,2.38l0,0C568.49,654.41,567.93,655.48,567.24,655.48z"></path>
          </g>
          <g>
            <path fill="#fff" d="M567.4,680.07h-10.4c-0.6,0-1.09-0.93-1.09-2.07l0,0c0-1.14,0.49-2.07,1.09-2.07h10.4
						c0.6,0,1.09,0.93,1.09,2.07l0,0C568.49,679.14,568,680.07,567.4,680.07z"></path>
          </g>
        </g>
      </g>
      <g>
        <g>
          <g>
            <g>
              <circle cx="400.14" cy="640.15" r="46.74" fill="#5c80ff" transform="rotate(-45.001 400.135 640.153)"></circle>
            </g>
          </g>
        </g>
        <g>
          <g>
            <g>
              <path fill="#fff" d="M430.37,675.6c-1.38-14.36-13.61-26.54-30.21-26.54s-27.95,12.56-30.21,26.64
							c0,0,10.26,11.34,30.21,11.18C420.11,686.72,430.37,675.6,430.37,675.6z"></path>
            </g>
          </g>
        </g>
        <g>
          <g>
            <g>
              <circle cx="400.16" cy="633.95" r="18.32" fill="#fff"></circle>
            </g>
          </g>
        </g>
      </g>
    </g>
  </g>
</svg>
